<?xml version="1.0" standalone="no"?>
<!DOCTYPE svg PUBLIC "-//W3C//DTD SVG 20010904//EN"
 "http://www.w3.org/TR/2001/REC-SVG-20010904/DTD/svg10.dtd">
<svg version="1.0" xmlns="http://www.w3.org/2000/svg"
 width="512.000000pt" height="512.000000pt" viewBox="0 0 512.000000 512.000000"
 preserveAspectRatio="xMidYMid meet">
<metadata>
Created by potrace 1.11, written by Peter Selinger 2001-2013
</metadata>
<g transform="translate(0.000000,512.000000) scale(0.100000,-0.100000)"
fill="#000000" stroke="none">
<path d="M2379 5116 c-2 -2 -35 -6 -74 -10 -38 -3 -97 -10 -130 -16 -33 -6
-76 -13 -95 -16 -61 -10 -262 -62 -335 -87 -459 -159 -817 -404 -1150 -787
-142 -163 -310 -442 -400 -660 -52 -128 -115 -324 -129 -400 -2 -14 -7 -36
-10 -50 -44 -190 -65 -557 -44 -780 68 -712 441 -1369 1028 -1808 312 -234
748 -418 1109 -468 20 -3 79 -11 131 -18 88 -12 497 -14 560 -3 14 3 45 8 70
11 25 4 92 16 150 27 58 12 115 23 128 25 38 7 320 103 370 125 438 197 789
473 1052 829 38 52 73 100 78 105 20 26 124 209 165 290 100 199 192 471 221
655 3 19 8 49 11 65 24 141 30 218 30 410 0 99 -3 214 -7 255 -60 596 -327
1153 -754 1572 -118 115 -147 141 -271 233 -212 160 -484 300 -743 383 -73 24
-247 68 -300 76 -19 3 -44 8 -56 10 -12 2 -45 7 -74 11 -29 4 -62 9 -74 12
-24 5 -452 14 -457 9z m368 -490 c46 -4 93 -9 105 -11 12 -3 40 -7 63 -10 91
-14 295 -71 402 -114 588 -234 1037 -720 1229 -1331 13 -41 25 -86 28 -100 3
-14 12 -56 20 -95 43 -204 53 -531 21 -696 -3 -13 -7 -41 -10 -64 -3 -22 -21
-99 -40 -172 -209 -803 -905 -1420 -1725 -1528 -198 -26 -407 -24 -600 6 -530
82 -1007 369 -1337 805 -196 258 -347 607 -388 899 -4 28 -9 59 -11 70 -8 39
-17 182 -17 270 0 93 10 273 17 284 2 3 7 31 10 61 17 141 93 381 177 555 316
660 973 1114 1694 1171 44 4 81 7 82 8 5 4 208 -2 280 -8z"/>
<path d="M3665 3781 c-99 -43 -396 -171 -660 -285 -264 -114 -493 -213 -510
-221 -40 -18 -90 -40 -280 -120 -88 -38 -165 -73 -171 -79 -6 -6 -18 -30 -27
-53 -9 -23 -25 -61 -36 -85 -11 -24 -59 -133 -106 -243 -48 -110 -93 -213
-100 -230 -7 -16 -77 -178 -155 -360 -78 -181 -148 -343 -155 -360 -79 -174
-206 -478 -202 -481 4 -5 897 377 1290 550 17 8 60 26 94 40 35 15 86 37 115
50 29 13 109 47 178 76 69 29 130 58 136 64 6 6 35 67 64 136 29 69 61 143 71
165 10 22 61 141 114 265 53 124 110 254 125 290 340 787 410 950 410 955 0
10 -15 4 -195 -74z m-995 -803 c186 -46 323 -224 322 -419 -1 -147 -73 -281
-195 -360 -173 -112 -396 -90 -540 55 -210 210 -157 553 108 692 92 49 196 59
305 32z"/>
</g>
</svg>
