<?xml version="1.0" encoding="utf-8"?>
<!-- Generator: Adobe Illustrator 21.0.2, SVG Export Plug-In . SVG Version: 6.00 Build 0)  -->
<svg version="1.1" id="Layer_1" xmlns="http://www.w3.org/2000/svg" xmlns:xlink="http://www.w3.org/1999/xlink" x="0px" y="0px"
	 viewBox="0 0 411 77" style="enable-background:new 0 0 411 77;" xml:space="preserve">
<style type="text/css">
	.st0{fill:#E7EAF6;}
</style>
<g>
	<g>
		<path class="st0" d="M4.7,41.7v-4.9c0-9.6,6.3-15.3,15.8-15.3h4.6V6h10.4v50.1h-8.9l-0.9-3.5c-1.2,2-4,4.3-8.4,4.3
			C9,57,4.7,52.4,4.7,41.7z M25.1,42.3V30.2h-4.3c-4.3,0-5.8,2.4-5.8,6.6v4.9c0,4.3,1.2,6.3,4.6,6.3C23.2,48.1,24.9,45.8,25.1,42.3z
			"/>
	</g>
	<g>
		<path class="st0" d="M56.5,42v-6.9c0-9,6-14.4,14.7-14.4c9.4,0,13.8,5.4,13.8,14.4v6.6H66.9v1c0,4,2,5.9,5.5,5.9
			c3.7,0,5.8-0.9,8.6-2.9l3.2,6.9c-3.6,3-7.9,4.3-12.4,4.3C62.5,57,56.5,52,56.5,42z M75.5,35.1V34c0-3-1.1-4.9-4.3-4.9
			c-2.9,0-4.3,1.7-4.3,4.9v1.2h8.6V35.1z"/>
	</g>
	<g>
		<path class="st0" d="M101.2,21.6h10.7l6.3,20.7l6.4-20.7h9.8l-11.5,34.6H112L101.2,21.6z"/>
	</g>
	<g>
		<path class="st0" d="M159.1,62.8h6.6c4,0,5.2-2.7,5.2-6.6v-2.6c-1.4,1.8-4.1,3.5-7.8,3.5c-8.4,0-12.7-4.6-12.7-15.3v-4.9
			c0-9.6,6.3-15.3,15.8-15.3h15v34.3c0,9.5-5.4,15.6-14.7,15.6H159L159.1,62.8L159.1,62.8z M170.9,41.7V30.2h-4.3
			c-4.3,0-5.8,2.4-5.8,6.6v4.9c0,4.3,1.2,6.3,4.6,6.3C169.1,48.1,170.9,45.5,170.9,41.7z"/>
	</g>
	<g>
		<path class="st0" d="M202.3,45.2c0-7.1,5.9-10.7,14.4-10.7h4.6v-0.9c0-2.9-2-4.3-5.5-4.3c-2.7,0-4.6,0.3-7.8,1.7l-2.9-7.5
			c3.7-1.9,7.1-2.9,11.5-2.9c8.1,0,14.7,3,14.7,13v22.5h-8.6l-0.6-2.6c-1.5,1.9-4.9,3.5-7.8,3.5C207.2,57,202.3,53.5,202.3,45.2z
			 M221.3,44.3v-2.9h-4.9c-2.6,0-4.3,1.2-4.3,3.5c0,2.7,1.7,4,4,4C219,48.9,221.3,47.1,221.3,44.3z"/>
	</g>
	<g>
		<path class="st0" d="M254.4,6h10.4v10.1h-10.4V6z M254.4,21.6h10.4v34.6h-10.4V21.6z"/>
	</g>
	<g>
		<path class="st0" d="M285.8,41.7v-4.9c0-9.6,6.3-15.3,15.8-15.3h4.6V6h10.4v50.1h-8.9l-0.9-3.5c-1.2,2-4,4.3-8.4,4.3
			C290.1,57,285.8,52.4,285.8,41.7z M306.2,42.3V30.2h-4.3c-4.3,0-5.8,2.4-5.8,6.6v4.9c0,4.3,1.2,6.3,4.6,6.3
			C304.3,48.1,306,45.8,306.2,42.3z"/>
	</g>
	<g>
		<path class="st0" d="M337.6,41.5V36c0-10.2,6.7-15.3,15.8-15.3c9,0,15.8,4.8,15.8,15.6v5.2c0,10.5-6.8,15.6-15.8,15.6
			C344.3,57,337.6,52.3,337.6,41.5z M358.9,41.5v-5.2c0-4.6-2.1-6.6-5.5-6.6c-3.6,0-5.5,2-5.5,6.6v5.2c0,4.9,1.9,6.6,5.5,6.6
			C356.8,48.1,358.9,46.4,358.9,41.5z"/>
	</g>
	<g>
		<path class="st0" d="M390.8,54.9c-1.2-1.2-1.9-2.8-1.9-4.5c0-1.8,0.6-3.3,1.9-4.5c1.2-1.2,2.8-1.9,4.5-1.9c1.8,0,3.3,0.6,4.5,1.9
			c1.2,1.2,1.9,2.8,1.9,4.5c0,1.8-0.6,3.3-1.9,4.5c-1.2,1.2-2.8,1.9-4.5,1.9C393.5,56.7,392,56.1,390.8,54.9z"/>
	</g>
</g>
</svg>
