<?xml version="1.0" encoding="utf-8"?>
<!-- Generator: Adobe Illustrator 21.0.2, SVG Export Plug-In . SVG Version: 6.00 Build 0)  -->
<svg version="1.1" id="Layer_1" xmlns="http://www.w3.org/2000/svg" xmlns:xlink="http://www.w3.org/1999/xlink" x="0px" y="0px"
	 viewBox="0 0 187 51" style="enable-background:new 0 0 187 51;" xml:space="preserve">
<style type="text/css">
	.st0{fill:#FFFFFF;}
	.st1{fill:#00E676;}
</style>
<g>
	<path class="st0" d="M0.7,15.7h9.2l0.6,3.2c1.4-2,4.5-4,8.1-4c9.2,0,13,5,13,14.1v21.3H21.2V29.6c0-3.5-1.6-5.5-4.9-5.5
		c-3.4,0-5.2,2.2-5.2,5.5v20.7H0.7V15.7z"/>
	<path class="st0" d="M45.4,36.2v-6.9c0-9,6-14.4,14.7-14.4c9.4,0,13.8,5.4,13.8,14.4v6.6H55.7v1c0,4,2,5.9,5.5,5.9
		c3.7,0,5.8-0.9,8.6-2.9l3.2,6.9c-3.6,3-7.9,4.3-12.4,4.3C51.3,51.2,45.4,46.1,45.4,36.2z M64.4,29.3v-1.2c0-3-1.1-4.9-4.3-4.9
		c-2.9,0-4.3,1.7-4.3,4.9v1.2H64.4z"/>
	<path class="st0" d="M85.7,35.9V31c0-9.6,6.3-15.3,15.8-15.3h4.6V0.2h10.4v50.1h-8.9l-0.9-3.5c-1.2,2-4,4.3-8.4,4.3
		C90,51.2,85.7,46.5,85.7,35.9z M106.1,36.5V24.4h-4.3c-4.3,0-5.8,2.4-5.8,6.6v4.9c0,4.3,1.2,6.3,4.6,6.3
		C104.2,42.2,105.9,39.9,106.1,36.5z"/>
	<path class="st0" d="M130.3,39.3c0-7.1,5.9-10.7,14.4-10.7h4.6v-0.9c0-2.9-2-4.3-5.5-4.3c-2.7,0-4.6,0.3-7.8,1.7l-2.9-7.5
		c3.7-1.9,7.1-2.9,11.5-2.9c8.1,0,14.7,3,14.7,13v22.5h-8.6l-0.6-2.6c-1.5,1.9-4.9,3.5-7.8,3.5C135.2,51.2,130.3,47.6,130.3,39.3z
		 M149.3,38.5v-2.9h-4.9c-2.6,0-4.3,1.2-4.3,3.5c0,2.7,1.7,4,4,4C147,43.1,149.3,41.3,149.3,38.5z"/>
	<path class="st1" d="M175.7,49c-1.2-1.2-1.9-2.8-1.9-4.5c0-1.8,0.6-3.3,1.9-4.5c1.2-1.2,2.8-1.9,4.5-1.9c1.8,0,3.3,0.6,4.5,1.9
		c1.2,1.2,1.9,2.8,1.9,4.5c0,1.8-0.6,3.3-1.9,4.5c-1.2,1.2-2.8,1.9-4.5,1.9C178.4,50.9,176.9,50.2,175.7,49z"/>
</g>
</svg>
