<?xml version="1.0" encoding="utf-8"?>
<!-- Generator: Adobe Illustrator 21.0.2, SVG Export Plug-In . SVG Version: 6.00 Build 0)  -->
<svg version="1.1" id="Layer_1" xmlns="http://www.w3.org/2000/svg" xmlns:xlink="http://www.w3.org/1999/xlink" x="0px" y="0px"
	 viewBox="0 0 362 120" style="enable-background:new 0 0 362 120;" xml:space="preserve">
<style type="text/css">
	.st0{fill:#144486;}
	.st1{fill:#17C7FF;}
</style>
<g>
	<g>
		<path class="st0" d="M38.9,39.9c-22.1,0-40.1,17.9-40.1,40.1c0,1.1,0.1,39.9,0.1,39.9h16.6c0,0,0-39.9-0.1-39.9c0,0,0,0,0,0
			c0-12.9,10.5-23.5,23.5-23.5S62.3,67,62.3,79.9c0,0,0,0,0,0c-0.2,0-0.3,39.9-0.3,39.9h16.6c0,0,0.3-38.3,0.3-39.9
			C78.9,57.8,61,39.9,38.9,39.9z"/>
	</g>
	<g>
		<path class="st0" d="M268.1,0c0,0-16,0-16.2,0v47.6c-6.6-4.9-14.8-7.7-23.6-7.7c-22.1,0-40.1,17.9-40.1,40.1s17.9,40.1,40.1,40.1
			c22.1,0,40.1-17.9,40.1-40.1C268.3,78.5,268.1,0,268.1,0z M228.3,103.4c-12.9,0-23.5-10.5-23.5-23.5s10.5-23.5,23.5-23.5
			s23.5,10.5,23.5,23.5S241.2,103.4,228.3,103.4z"/>
	</g>
	<g>
		<path class="st0" d="M363,79.9c0-22.1-17.9-40.1-40.1-40.1s-40.1,17.9-40.1,40.1S300.8,120,323,120c8.8,0,17-2.9,23.6-7.7v7.5
			h11.7v0h4.9C363.2,119.8,363,80,363,79.9z M323,103.4c-12.9,0-23.5-10.5-23.5-23.5S310,56.5,323,56.5c12.9,0,23.5,10.5,23.5,23.5
			S335.9,103.4,323,103.4z"/>
	</g>
	<g>
		<g>
			<path class="st1" d="M133.6,39.9c-22.1,0-40.1,17.9-40.1,40.1s17.9,40.1,40.1,40.1s40.1-17.9,40.1-40.1S155.7,39.9,133.6,39.9z
				 M133.6,56.5c10.1,0,18.7,6.4,22,15.4h-44C114.9,62.9,123.5,56.5,133.6,56.5z M133.6,103.4c-10.1,0-18.7-6.4-22-15.4h44
				C152.3,97,143.7,103.4,133.6,103.4z"/>
		</g>
	</g>
</g>
</svg>
