<?xml version="1.0" encoding="utf-8"?>
<!-- Generator: Adobe Illustrator 21.0.2, SVG Export Plug-In . SVG Version: 6.00 Build 0)  -->
<svg version="1.1" id="Layer_2" xmlns="http://www.w3.org/2000/svg" xmlns:xlink="http://www.w3.org/1999/xlink" x="0px" y="0px"
	 viewBox="0 0 600 600" style="enable-background:new 0 0 600 600;" xml:space="preserve">
<style type="text/css">
	.st0{fill:#F9FBFF;}
	.st1{fill:#FFFFFF;stroke:#1A237E;stroke-width:7;stroke-miterlimit:10;}
	.st2{fill:#9EA8DB;stroke:#1A237E;stroke-width:7;stroke-miterlimit:10;}
	.st3{fill:none;stroke:#1A237E;stroke-width:7;stroke-linecap:round;stroke-miterlimit:10;}
	.st4{fill:none;stroke:#1A237E;stroke-width:7;stroke-miterlimit:10;}
	.st5{fill:#3CC788;stroke:#1A237E;stroke-width:7;stroke-miterlimit:10;}
	.st6{fill:none;stroke:#1A237E;stroke-width:7;stroke-linecap:round;stroke-linejoin:round;stroke-miterlimit:10;}
	.st7{fill:none;stroke:#1A237E;stroke-width:7;stroke-miterlimit:10;stroke-dasharray:28.1371,14.0685;}
	.st8{fill:none;stroke:#1A237E;stroke-width:7;stroke-miterlimit:10;stroke-dasharray:24,12;}
</style>
<g>
	<g>
		<g id="Layer_4_2_">
			<circle class="st0" cx="262.5" cy="309.7" r="165.3"/>
		</g>
		<path class="st0" d="M220.7,276.9h222.5c18.1,0,32.7-14.7,32.7-32.7l0,0c0-18.1-14.7-32.7-32.7-32.7H220.7
			c-18.1,0-32.7,14.7-32.7,32.7l0,0C187.9,262.3,202.6,276.9,220.7,276.9z"/>
		<path class="st0" d="M123.7,392.4h-32c-17.4,0-31.5-14.1-31.5-31.5l0,0c0-17.4,14.1-31.5,31.5-31.5h32c17.4,0,31.5,14.1,31.5,31.5
			l0,0C155.2,378.3,141.1,392.4,123.7,392.4z"/>
		<path class="st0" d="M233.9,392.4h242c16.6,0,30-13.4,30-30l0,0c0-16.6-13.4-30-30-30h-242c-16.6,0-30,13.4-30,30l0,0
			C203.9,379,217.3,392.4,233.9,392.4z"/>
		<path class="st0" d="M331.9,488.4H427c14.9,0,27-12.1,27-27l0,0c0-14.9-12.1-27-27-27h-95.1c-14.9,0-27,12.1-27,27l0,0
			C304.9,476.4,317,488.4,331.9,488.4z"/>
		<path class="st0" d="M35.4,302.9h91c11.3,0,20.5-9.2,20.5-20.5l0,0c0-11.3-9.2-20.5-20.5-20.5h-91c-11.3,0-20.5,9.2-20.5,20.5l0,0
			C14.9,293.8,24.1,302.9,35.4,302.9z"/>
		<path class="st0" d="M532.1,464.4h27c14.4,0,26-11.6,26-26l0,0c0-14.4-11.6-26-26-26h-27c-14.4,0-26,11.6-26,26l0,0
			C506.1,452.8,517.8,464.4,532.1,464.4z"/>
		<g>
			<path class="st0" d="M501.9,153.9c-10.8,0-19.5-8.7-19.5-19.5s8.7-19.5,19.5-19.5c10.8,0,19.5,8.7,19.5,19.5
				S512.7,153.9,501.9,153.9z M501.9,126.9c-4.1,0-7.5,3.4-7.5,7.5c0,4.1,3.4,7.5,7.5,7.5s7.5-3.4,7.5-7.5
				C509.4,130.3,506,126.9,501.9,126.9z"/>
		</g>
		<g>
			<path class="st0" d="M316.9,123.9c-6.6,0-12-5.4-12-12s5.4-12,12-12s12,5.4,12,12S323.6,123.9,316.9,123.9z M316.9,107.2
				c-2.6,0-4.6,2.1-4.6,4.6s2.1,4.6,4.6,4.6s4.6-2.1,4.6-4.6S319.5,107.2,316.9,107.2z"/>
		</g>
		<g>
			<path class="st0" d="M531.9,301.4c-7.5,0-13.7-6.1-13.7-13.7s6.1-13.7,13.7-13.7c7.6,0,13.7,6.1,13.7,13.7
				C545.6,295.3,539.4,301.4,531.9,301.4z M531.9,282.5c-2.9,0-5.3,2.4-5.3,5.3s2.4,5.3,5.3,5.3c2.9,0,5.3-2.4,5.3-5.3
				S534.8,282.5,531.9,282.5z"/>
		</g>
	</g>
	<g>
		<path class="st1" d="M352.3,436.6H179.8c-26.5,0-48-21.5-48-48v-141c0-26.5,21.5-48,48-48h172.5c26.5,0,48,21.5,48,48v141
			C400.3,415.1,378.8,436.6,352.3,436.6z"/>
		<path class="st2" d="M400.3,263.1H131.8v-15.5c0-26.5,21.5-48,48-48H350c27.8,0,50.2,22.5,50.2,50.2L400.3,263.1L400.3,263.1z"/>
	</g>
	<g>
		<path class="st1" d="M200.1,224L200.1,224c-4.7,0-8.5-3.8-8.5-8.5v-25c0-4.7,3.8-8.5,8.5-8.5l0,0c4.7,0,8.5,3.8,8.5,8.5v25
			C208.6,220.2,204.7,224,200.1,224z"/>
		<path class="st1" d="M332.1,224L332.1,224c-4.7,0-8.5-3.8-8.5-8.5v-25c0-4.7,3.8-8.5,8.5-8.5l0,0c4.7,0,8.5,3.8,8.5,8.5v25
			C340.6,220.2,336.7,224,332.1,224z"/>
	</g>
	<g>
		<line class="st3" x1="176.6" y1="285" x2="176.6" y2="406.1"/>
		<line class="st3" x1="221.3" y1="285" x2="221.3" y2="406.1"/>
		<line class="st3" x1="266.1" y1="285" x2="266.1" y2="406.1"/>
		<line class="st3" x1="310.8" y1="285" x2="310.8" y2="406.1"/>
		<line class="st3" x1="355.6" y1="285" x2="355.6" y2="406.1"/>
	</g>
	<g>
		<line class="st4" x1="177.1" y1="323.8" x2="356.1" y2="323.8"/>
		<line class="st4" x1="176.1" y1="367.5" x2="356.1" y2="369.4"/>
	</g>
	<circle class="st5" cx="374.8" cy="215.7" r="74.9"/>
	<path class="st1" d="M374.8,277.4c-34,0-61.7-27.7-61.7-61.7s27.7-61.7,61.7-61.7s61.7,27.7,61.7,61.7S408.8,277.4,374.8,277.4z"/>
	<polyline class="st6" points="374.8,170.6 374.8,215.7 410.6,215.7 	"/>
	<g>
		<g>
			<path class="st4" d="M101.8,247.6c0-4.1,0.3-8.1,0.9-12"/>
			<path class="st7" d="M106.1,222c4.7-13.4,12.9-25.2,23.6-34.1c8.9-7.5,19.6-13.1,31.3-16"/>
			<path class="st4" d="M167.9,170.6c3.9-0.6,7.9-0.9,12-0.9"/>
		</g>
	</g>
	<path class="st4" d="M211.8,466.6h-32c-43,0-78-35-78-78"/>
	<path class="st8" d="M430.3,388.6c0,43-35,78-78,78"/>
	<line class="st4" x1="160.8" y1="496.6" x2="276.8" y2="496.6"/>
	<line class="st4" x1="172.8" y1="144.4" x2="288.8" y2="144.4"/>
	<line class="st4" x1="255.8" y1="466.6" x2="310.8" y2="466.6"/>
</g>
</svg>
