<?xml version="1.0" encoding="utf-8"?>
<!-- Generator: Adobe Illustrator 21.0.2, SVG Export Plug-In . SVG Version: 6.00 Build 0)  -->
<svg version="1.1" xmlns="http://www.w3.org/2000/svg" xmlns:xlink="http://www.w3.org/1999/xlink" x="0px" y="0px"
	 viewBox="0 0 600 600" style="enable-background:new 0 0 600 600;" xml:space="preserve">
<style type="text/css">
	.st0{fill:#F9FBFF;}
	.st1{fill:#868AA5;}
	.st2{fill:#D3E2FF;stroke:#686D8E;stroke-width:7;stroke-miterlimit:10;}
	.st3{fill:#FFD9CC;stroke:#686D8E;stroke-width:7;stroke-miterlimit:10;}
	.st4{fill:#FFE2D9;stroke:#686D8E;stroke-width:7;stroke-miterlimit:10;}
	.st5{fill:none;stroke:#686D8E;stroke-width:7;stroke-miterlimit:10;}
	.st6{fill:none;stroke:#686D8E;stroke-width:7;stroke-linecap:round;stroke-miterlimit:10;}
	.st7{fill:#676D8D;}
	.st8{fill:#676D8D;stroke:#686D8E;stroke-width:7;stroke-miterlimit:10;}
	.st9{fill:#FEF1EE;stroke:#686D8E;stroke-width:7;stroke-miterlimit:10;}
	.st10{fill:#FFFFFF;stroke:#686D8E;stroke-width:7;stroke-miterlimit:10;}
	.st11{fill:none;stroke:#686D8E;stroke-width:7;stroke-linecap:round;stroke-linejoin:round;stroke-miterlimit:10;}
	.st12{fill:none;stroke:#686D8E;stroke-width:7;stroke-miterlimit:10;stroke-dasharray:28.1371,14.0685;}
	.st13{fill:none;stroke:#686D8E;stroke-width:7;stroke-miterlimit:10;stroke-dasharray:24,12;}
	.st14{fill:#B2E1DD;stroke:#686D8E;stroke-width:7;stroke-miterlimit:10;}
	.st15{fill:#DCE8FF;stroke:#686D8E;stroke-width:7;stroke-miterlimit:10;}
	.st16{fill:#7ECDC7;stroke:#686D8E;stroke-width:7;stroke-miterlimit:10;}
	.st17{fill:none;stroke:#C3C5D2;stroke-width:7;stroke-linecap:round;stroke-miterlimit:10;}
	.st18{fill:#BDCCD4;stroke:#686D8E;stroke-width:7;stroke-miterlimit:10;}
	.st19{display:none;}
</style>
<g id="background">
	<path class="st0" d="M223.6,281.3h222.5c18.1,0,32.7-14.7,32.7-32.7l0,0c0-18.1-14.7-32.7-32.7-32.7H223.6
		c-18.1,0-32.7,14.7-32.7,32.7l0,0C190.8,266.7,205.5,281.3,223.6,281.3z"/>
	<path class="st0" d="M126.7,396.8h-32c-17.4,0-31.5-14.1-31.5-31.5l0,0c0-17.4,14.1-31.5,31.5-31.5h32c17.4,0,31.5,14.1,31.5,31.5
		l0,0C158.2,382.7,144.1,396.8,126.7,396.8z"/>
	<path class="st0" d="M236.8,396.8h242c16.6,0,30-13.4,30-30l0,0c0-16.6-13.4-30-30-30h-242c-16.6,0-30,13.4-30,30l0,0
		C206.8,383.4,220.2,396.8,236.8,396.8z"/>
	<path class="st0" d="M334.8,492.8h95.1c14.9,0,27-12.1,27-27l0,0c0-14.9-12.1-27-27-27h-95.1c-14.9,0-27,12.1-27,27l0,0
		C307.8,480.8,319.9,492.8,334.8,492.8z"/>
	<path class="st0" d="M38.3,307.3h91c11.3,0,20.5-9.2,20.5-20.5l0,0c0-11.3-9.2-20.5-20.5-20.5h-91c-11.3,0-20.5,9.2-20.5,20.5l0,0
		C17.8,298.2,27,307.3,38.3,307.3z"/>
	<path class="st0" d="M535,468.8h27c14.4,0,26-11.6,26-26l0,0c0-14.4-11.6-26-26-26h-27c-14.4,0-26,11.6-26,26l0,0
		C509,457.2,520.7,468.8,535,468.8z"/>
	<path class="st0" d="M109.8,167.1h27c14.4,0,26-11.6,26-26l0,0c0-14.4-11.6-26-26-26h-27c-14.4,0-26,11.6-26,26l0,0
		C83.8,155.5,95.5,167.1,109.8,167.1z"/>
	<g>
		<path class="st0" d="M510.8,115.1c-10.8,0-19.5-8.7-19.5-19.5s8.7-19.5,19.5-19.5c10.8,0,19.5,8.7,19.5,19.5
			S521.6,115.1,510.8,115.1z M510.8,88.1c-4.1,0-7.5,3.4-7.5,7.5s3.4,7.5,7.5,7.5s7.5-3.4,7.5-7.5S514.9,88.1,510.8,88.1z"/>
	</g>
	<g>
		<path class="st0" d="M114.2,235.4c-10.8,0-19.5-8.7-19.5-19.5s8.7-19.5,19.5-19.5s19.5,8.7,19.5,19.5S125,235.4,114.2,235.4z
			 M114.2,208.4c-4.1,0-7.5,3.4-7.5,7.5c0,4.1,3.4,7.5,7.5,7.5s7.5-3.4,7.5-7.5C121.7,211.8,118.3,208.4,114.2,208.4z"/>
	</g>
	<g>
		<path class="st0" d="M319.8,128.3c-6.6,0-12-5.4-12-12c0-6.6,5.4-12,12-12s12,5.4,12,12C331.8,122.9,326.5,128.3,319.8,128.3z
			 M319.8,111.6c-2.6,0-4.6,2.1-4.6,4.6s2.1,4.6,4.6,4.6s4.6-2.1,4.6-4.6S322.4,111.6,319.8,111.6z"/>
	</g>
	<g>
		<path class="st0" d="M534.8,305.8c-7.5,0-13.7-6.1-13.7-13.7c0-7.6,6.1-13.7,13.7-13.7s13.7,6.1,13.7,13.7
			C548.5,299.7,542.3,305.8,534.8,305.8z M534.8,286.9c-2.9,0-5.3,2.4-5.3,5.3c0,2.9,2.4,5.3,5.3,5.3s5.3-2.4,5.3-5.3
			C540.1,289.3,537.7,286.9,534.8,286.9z"/>
	</g>
</g>
<g id="character">
	<circle class="st1" cx="300" cy="311.8" r="160"/>
	<circle class="st14" cx="300" cy="300" r="160"/>
	<path class="st10" d="M300,430c-71.7,0-130-58.3-130-130s58.3-130,130-130s130,58.3,130,130S371.7,430,300,430z"/>
	<path class="st15" d="M300,400c-55.1,0-100-44.9-100-100s44.9-100,100-100s100,44.9,100,100S355.1,400,300,400z"/>
	<path class="st10" d="M300,370c-38.6,0-70-31.4-70-70s31.4-70,70-70s70,31.4,70,70S338.6,370,300,370z"/>
	<path class="st16" d="M300,340c-22.1,0-40-17.9-40-40s17.9-40,40-40s40,17.9,40,40S322.1,340,300,340z"/>
	<line class="st17" x1="300" y1="303.4" x2="460" y2="303.4"/>
	<g>
		<polyline class="st6" points="300.3,304.7 435.4,169.6 470,135 		"/>
		<polygon class="st18" points="427.4,145.9 471.4,101.8 471.4,134.1 425.2,180.3 		"/>
		<polygon class="st2" points="459.6,178.2 503.7,134.1 471.4,134.1 425.2,180.3 		"/>
	</g>
</g>
<g id="Layer_3" class="st19">
	
		<image style="display:inline;overflow:visible;" width="134" height="150" xlink:href="99F8242E.jpg"  transform="matrix(3.1687 0 0 3.1687 87.6963 62.3467)">
	</image>
</g>
</svg>
