<?xml version="1.0" encoding="utf-8"?>
<!-- Generator: Adobe Illustrator 21.0.2, SVG Export Plug-In . SVG Version: 6.00 Build 0)  -->
<svg version="1.1" id="Layer_1" xmlns="http://www.w3.org/2000/svg" xmlns:xlink="http://www.w3.org/1999/xlink" x="0px" y="0px"
	 viewBox="0 0 1920 1080" style="enable-background:new 0 0 1920 1080;" xml:space="preserve">
<style type="text/css">
	.st0{fill:#E7EAF6;}
	.st1{fill:#F9FBFF;}
	.st2{display:none;}
	.st3{display:inline;}
	.st4{fill:#BDCCD4;}
	.st5{fill:#6ADD45;}
	.st6{fill:#FFFFFF;}
	.st7{fill:#477EFD;}
</style>
<g id="Layer_1_1_">
	<g id="Layer_2">
		<rect class="st0" width="1920" height="1080"/>
	</g>
</g>
<g id="Layer_3">
	<path class="st1" d="M1623.1,472.5h-97.4c-13,0-23.5-10.5-23.5-23.5l0,0c0-13,10.5-23.5,23.5-23.5h97.4c13,0,23.5,10.5,23.5,23.5
		l0,0C1646.6,462,1636.1,472.5,1623.1,472.5z"/>
	<path class="st1" d="M1044.9,993.7h-97.4c-13,0-23.5-10.5-23.5-23.5l0,0c0-13,10.5-23.5,23.5-23.5h97.4c13,0,23.5,10.5,23.5,23.5
		l0,0C1068.4,983.2,1057.9,993.7,1044.9,993.7z"/>
	<path class="st1" d="M473.6,579h-97.4c-13,0-23.5-10.5-23.5-23.5l0,0c0-13,10.5-23.5,23.5-23.5h97.4c13,0,23.5,10.5,23.5,23.5l0,0
		C497.1,568.4,486.6,579,473.6,579z"/>
	<path class="st1" d="M1472.5,337.2h-179.1c-13,0-23.5-10.5-23.5-23.5l0,0c0-13,10.5-23.5,23.5-23.5h179.1c13,0,23.5,10.5,23.5,23.5
		l0,0C1496,326.7,1485.5,337.2,1472.5,337.2z"/>
</g>
<g id="Layer_5">
</g>
<g id="Layer_4">
	<path class="st1" d="M1254.2,620.6h203.1c16.5,0,29.9-13.4,29.9-29.9l0,0c0-16.5-13.4-29.9-29.9-29.9h-203.1
		c-16.5,0-29.9,13.4-29.9,29.9l0,0C1224.3,607.3,1237.7,620.6,1254.2,620.6z"/>
	<path class="st1" d="M814.7,331.6h203.1c16.5,0,29.9-13.4,29.9-29.9l0,0c0-16.5-13.4-29.9-29.9-29.9H814.7
		c-16.5,0-29.9,13.4-29.9,29.9l0,0C784.8,318.2,798.2,331.6,814.7,331.6z"/>
	<path class="st1" d="M151.2,818.5h220.9c15.2,0,27.4-12.2,27.4-27.4l0,0c0-15.2-12.2-27.4-27.4-27.4H151.2
		c-15.2,0-27.4,12.2-27.4,27.4l0,0C123.8,806.3,136,818.5,151.2,818.5z"/>
	<path class="st1" d="M1318.4,785.6h220.9c15.2,0,27.4-12.2,27.4-27.4l0,0c0-15.2-12.2-27.4-27.4-27.4h-220.9
		c-15.2,0-27.4,12.2-27.4,27.4l0,0C1291.1,773.4,1303.3,785.6,1318.4,785.6z"/>
	<path class="st1" d="M1076.7,159.1h83.1c10.3,0,18.7-8.4,18.7-18.7l0,0c0-10.3-8.4-18.7-18.7-18.7h-83.1
		c-10.3,0-18.7,8.4-18.7,18.7l0,0C1058,150.8,1066.4,159.1,1076.7,159.1z"/>
	<g>
		<path class="st1" d="M978.5,672.2c-9.9,0-17.8-7.9-17.8-17.8s7.9-17.8,17.8-17.8s17.8,7.9,17.8,17.8S988.3,672.2,978.5,672.2z
			 M978.5,647.6c-3.7,0-6.8,3.1-6.8,6.8s3.1,6.8,6.8,6.8s6.8-3.1,6.8-6.8S982.2,647.6,978.5,647.6z"/>
	</g>
	<g>
		<path class="st1" d="M960,107.6c-6,0-11-4.9-11-11s4.9-11,11-11s11,4.9,11,11S966.1,107.6,960,107.6z M960,92.3
			c-2.4,0-4.2,1.9-4.2,4.2s1.9,4.2,4.2,4.2s4.2-1.9,4.2-4.2S962.4,92.3,960,92.3z"/>
	</g>
	<g>
		<path class="st1" d="M1685.4,785.6c-6,0-11-4.9-11-11c0-6,4.9-11,11-11s11,4.9,11,11C1696.3,780.7,1691.5,785.6,1685.4,785.6z
			 M1685.4,770.4c-2.4,0-4.2,1.9-4.2,4.2s1.9,4.2,4.2,4.2s4.2-1.9,4.2-4.2S1687.7,770.4,1685.4,770.4z"/>
	</g>
	<g>
		<path class="st1" d="M1810.5,338.8c-6.8,0-12.5-5.6-12.5-12.5s5.6-12.5,12.5-12.5s12.5,5.6,12.5,12.5S1817.4,338.8,1810.5,338.8z
			 M1810.5,321.5c-2.6,0-4.8,2.2-4.8,4.8s2.2,4.8,4.8,4.8c2.6,0,4.8-2.2,4.8-4.8S1813.2,321.5,1810.5,321.5z"/>
	</g>
	<path class="st1" d="M725.7,665.5H522.5c-16.5,0-29.9,13.4-29.9,29.9l0,0c0,16.5,13.4,29.9,29.9,29.9h203.1
		c16.5,0,29.9-13.4,29.9-29.9l0,0C755.6,678.8,742.2,665.5,725.7,665.5z"/>
	<path class="st1" d="M661.4,396.2H317.5c-13.6,0-24.6,11-24.6,24.6l0,0c0,13.6,11,24.6,24.6,24.6h343.9c13.6,0,24.6-11,24.6-24.6
		l0,0C686,407.1,675,396.2,661.4,396.2z"/>
	<path class="st1" d="M736.8,811.7h-83.1c-10.3,0-18.7,8.4-18.7,18.7l0,0c0,10.3,8.4,18.7,18.7,18.7h83.1c10.3,0,18.7-8.4,18.7-18.7
		l0,0C755.5,820,747.1,811.7,736.8,811.7z"/>
	<path class="st1" d="M394.3,117.3h-83.1c-10.3,0-18.7,8.4-18.7,18.7l0,0c0,10.3,8.4,18.7,18.7,18.7h83.1c10.3,0,18.7-8.4,18.7-18.7
		l0,0C413.1,125.6,404.7,117.3,394.3,117.3z"/>
	<g>
		<path class="st1" d="M486.5,874.5c9.9,0,17.8,7.9,17.8,17.8s-7.9,17.8-17.8,17.8s-17.8-7.9-17.8-17.8S476.6,874.5,486.5,874.5z
			 M486.5,899.2c3.7,0,6.8-3.1,6.8-6.8s-3.1-6.8-6.8-6.8c-3.7,0-6.8,3.1-6.8,6.8S482.7,899.2,486.5,899.2z"/>
	</g>
	<g>
		<path class="st1" d="M766.5,915c6,0,11,4.9,11,11s-4.9,11-11,11c-6,0-11-4.9-11-11S760.4,915,766.5,915z M766.5,930.2
			c2.4,0,4.2-1.9,4.2-4.2s-1.9-4.2-4.2-4.2s-4.2,1.9-4.2,4.2S764.1,930.2,766.5,930.2z"/>
	</g>
	<g>
		<path class="st1" d="M526.6,301.2c10.6,0,19.4,8.6,19.4,19.4s-8.6,19.4-19.4,19.4c-10.7,0-19.4-8.6-19.4-19.4
			S516,301.2,526.6,301.2z M526.6,328c4.1,0,7.5-3.4,7.5-7.5s-3.4-7.5-7.5-7.5s-7.5,3.4-7.5,7.5S522.5,328,526.6,328z"/>
	</g>
</g>
<g id="Layer_2_1_" class="st2">
	<g id="Layer_1_2_" class="st3">
		<g>
			<path class="st4" d="M1412.5,304c-37,0-67,30-67,67s30,67,67,67s67-30,67-67S1449.5,304,1412.5,304z M1412.5,415
				c-24.3,0-44-19.7-44-44s19.7-44,44-44s44,19.7,44,44S1436.8,415,1412.5,415z"/>
		</g>
		<g>
			<path class="st5" d="M541.5,399.5c-37,0-67,30-67,67s30,67,67,67s67-30,67-67S578.5,399.5,541.5,399.5z M541.5,510.5
				c-24.3,0-44-19.7-44-44s19.7-44,44-44s44,19.7,44,44S565.8,510.5,541.5,510.5z"/>
		</g>
		<g>
			<path class="st6" d="M1645.5,737.5c-37,0-67,30-67,67s30,67,67,67s67-30,67-67S1682.5,737.5,1645.5,737.5z M1645.5,848.5
				c-24.3,0-44-19.7-44-44s19.7-44,44-44s44,19.7,44,44S1669.8,848.5,1645.5,848.5z"/>
		</g>
		<g>
			<path class="st7" d="M827.5,866.5c-37,0-67,30-67,67s30,67,67,67s67-30,67-67S864.5,866.5,827.5,866.5z M827.5,977.5
				c-24.3,0-44-19.7-44-44s19.7-44,44-44s44,19.7,44,44S851.8,977.5,827.5,977.5z"/>
		</g>
	</g>
</g>
<g>
	<path class="st1" d="M178,540c-37,0-67,30-67,67s30,67,67,67s67-30,67-67S215,540,178,540z M178,651c-24.3,0-44-19.7-44-44
		s19.7-44,44-44s44,19.7,44,44S202.3,651,178,651z"/>
</g>
<g>
	<path class="st1" d="M1760.5,853.6c-35.5,0-64.2,28.7-64.2,64.2s28.7,64.2,64.2,64.2c35.5,0,64.2-28.7,64.2-64.2
		S1796,853.6,1760.5,853.6z M1760.5,960c-23.3,0-42.2-18.9-42.2-42.2s18.9-42.2,42.2-42.2c23.3,0,42.2,18.9,42.2,42.2
		S1783.8,960,1760.5,960z"/>
</g>
<g>
	<path class="st1" d="M1339.2,917.8c-15.9,0-28.8,12.9-28.8,28.8s12.9,28.8,28.8,28.8s28.8-12.9,28.8-28.8
		S1355.1,917.8,1339.2,917.8z M1339.2,965.6c-10.5,0-18.9-8.5-18.9-18.9s8.5-18.9,18.9-18.9s18.9,8.5,18.9,18.9
		S1349.6,965.6,1339.2,965.6z"/>
</g>
<g>
	<path class="st1" d="M1591.4,154.7c-24,0-43.4,19.5-43.4,43.5s19.5,43.4,43.4,43.4c24,0,43.5-19.5,43.5-43.4
		S1615.4,154.7,1591.4,154.7z M1591.4,226.7c-15.8,0-28.5-12.8-28.5-28.5s12.8-28.5,28.5-28.5c15.8,0,28.5,12.8,28.5,28.5
		S1607.2,226.7,1591.4,226.7z"/>
</g>
</svg>
