<?xml version="1.0" encoding="UTF-8" standalone="no"?><!DOCTYPE svg PUBLIC "-//W3C//DTD SVG 1.1//EN" "http://www.w3.org/Graphics/SVG/1.1/DTD/svg11.dtd"><svg width="100%" height="100%" viewBox="0 0 147 28" version="1.1" xmlns="http://www.w3.org/2000/svg" xmlns:xlink="http://www.w3.org/1999/xlink" xml:space="preserve" style="fill-rule:evenodd;clip-rule:evenodd;stroke-linejoin:round;stroke-miterlimit:1.41421;"><g><path d="M136.46,7.836c5.428,0 9.834,4.407 9.834,9.834c0,5.428 -4.406,9.834 -9.834,9.834c-5.427,0 -9.834,-4.406 -9.834,-9.834c0,-5.427 4.407,-9.834 9.834,-9.834Zm0,1.864c4.399,0 7.971,3.571 7.971,7.97c0,4.399 -3.572,7.97 -7.971,7.97c-4.399,0 -7.97,-3.571 -7.97,-7.97c0,-4.399 3.571,-7.97 7.97,-7.97Z" style="fill:#d16c4b;"/><path d="M141.483,12.647l-7.017,3.029l-3.029,7.017l7.018,-3.029l3.028,-7.017Zm-3.842,3.842c0.652,0.652 0.652,1.71 0,2.362c-0.651,0.652 -1.71,0.652 -2.362,0c-0.651,-0.652 -0.651,-1.71 0,-2.362c0.652,-0.652 1.711,-0.652 2.362,0Z" style="fill:#2d709b;"/><path d="M14.76,0.612l0,26.892l-1.8,0l-0.252,-3.276c-1.296,2.184 -3.18,3.276 -5.652,3.276c-2.184,0 -3.906,-0.87 -5.166,-2.61c-1.26,-1.74 -1.89,-4.11 -1.89,-7.11c0,-1.944 0.294,-3.66 0.882,-5.148c0.588,-1.488 1.44,-2.652 2.556,-3.492c1.116,-0.84 2.43,-1.26 3.942,-1.26c2.136,0 3.9,0.852 5.292,2.556l0,-10.08l2.088,0.252Zm-4.338,24.3c0.828,-0.576 1.578,-1.452 2.25,-2.628l0,-9.828c-1.344,-1.896 -2.988,-2.844 -4.932,-2.844c-1.704,0 -3.054,0.708 -4.05,2.124c-0.996,1.416 -1.482,3.42 -1.458,6.012c0,2.592 0.456,4.578 1.368,5.958c0.912,1.38 2.172,2.07 3.78,2.07c1.2,0 2.214,-0.288 3.042,-0.864Z" style="fill:#2d709b;fill-rule:nonzero;"/><path d="M35.676,18.504l-12.564,0c0.12,2.448 0.702,4.266 1.746,5.454c1.044,1.188 2.418,1.782 4.122,1.782c0.984,0 1.854,-0.15 2.61,-0.45c0.756,-0.3 1.578,-0.774 2.466,-1.422l0.972,1.332c-0.936,0.768 -1.896,1.344 -2.88,1.728c-0.984,0.384 -2.076,0.576 -3.276,0.576c-2.496,0 -4.452,-0.852 -5.868,-2.556c-1.416,-1.704 -2.124,-4.068 -2.124,-7.092c0,-1.992 0.306,-3.738 0.918,-5.238c0.612,-1.5 1.488,-2.664 2.628,-3.492c1.14,-0.828 2.466,-1.242 3.978,-1.242c2.4,0 4.224,0.81 5.472,2.43c1.248,1.62 1.872,3.846 1.872,6.678c0,0.528 -0.024,1.032 -0.072,1.512Zm-1.98,-2.16c0,-2.112 -0.438,-3.762 -1.314,-4.95c-0.876,-1.188 -2.178,-1.782 -3.906,-1.782c-1.56,0 -2.82,0.6 -3.78,1.8c-0.96,1.2 -1.488,3.024 -1.584,5.472l10.584,0l0,-0.54Z" style="fill:#2d709b;fill-rule:nonzero;"/><path d="M54.18,8.28l-6.516,18.828l-2.592,0l-6.732,-18.828l2.304,0l5.724,16.992l5.58,-16.992l2.232,0Z" style="fill:#2d709b;fill-rule:nonzero;"/><path d="M71.028,2.646c1.032,0.396 2.076,1.014 3.132,1.854l-1.296,1.368c-0.888,-0.696 -1.752,-1.2 -2.592,-1.512c-0.84,-0.312 -1.8,-0.468 -2.88,-0.468c-1.416,0 -2.73,0.372 -3.942,1.116c-1.212,0.744 -2.196,1.926 -2.952,3.546c-0.756,1.62 -1.134,3.666 -1.134,6.138c0,3.672 0.696,6.42 2.088,8.244c1.392,1.824 3.336,2.736 5.832,2.736c1.92,0 3.648,-0.432 5.184,-1.296l0,-8.748l-4.824,0l-0.252,-1.8l7.2,0l0,11.664c-2.352,1.344 -4.788,2.016 -7.308,2.016c-3.144,0 -5.628,-1.092 -7.452,-3.276c-1.824,-2.184 -2.736,-5.364 -2.736,-9.54c0,-2.712 0.474,-5.022 1.422,-6.93c0.948,-1.908 2.208,-3.336 3.78,-4.284c1.572,-0.948 3.27,-1.422 5.094,-1.422c1.392,0 2.604,0.198 3.636,0.594Z" style="fill:#d16c4b;fill-rule:nonzero;"/><path d="M92.862,25.056c0.252,0.432 0.654,0.756 1.206,0.972l-0.468,1.476c-0.864,-0.168 -1.53,-0.492 -1.998,-0.972c-0.468,-0.48 -0.774,-1.212 -0.918,-2.196c-1.296,2.112 -3.252,3.168 -5.868,3.168c-1.8,0 -3.222,-0.51 -4.266,-1.53c-1.044,-1.02 -1.566,-2.382 -1.566,-4.086c0,-1.944 0.69,-3.444 2.07,-4.5c1.38,-1.056 3.294,-1.584 5.742,-1.584l3.6,0l0,-1.836c0,-1.512 -0.336,-2.61 -1.008,-3.294c-0.672,-0.684 -1.788,-1.026 -3.348,-1.026c-1.44,0 -3.144,0.36 -5.112,1.08l-0.54,-1.584c2.112,-0.84 4.092,-1.26 5.94,-1.26c4.104,0 6.156,1.992 6.156,5.976l0,9.072c0,0.984 0.126,1.692 0.378,2.124Zm-2.466,-2.556l0,-5.184l-3.276,0c-1.92,0 -3.384,0.372 -4.392,1.116c-1.008,0.744 -1.512,1.86 -1.512,3.348c0,1.296 0.348,2.292 1.044,2.988c0.696,0.696 1.668,1.044 2.916,1.044c2.256,0 3.996,-1.104 5.22,-3.312Z" style="fill:#d16c4b;fill-rule:nonzero;"/><path d="M102.168,8.28l0,18.828l-2.088,0l0,-18.828l2.088,0Zm0.072,-7.848c0.288,0.288 0.432,0.648 0.432,1.08c0,0.432 -0.144,0.792 -0.432,1.08c-0.288,0.288 -0.672,0.432 -1.152,0.432c-0.456,0 -0.828,-0.144 -1.116,-0.432c-0.288,-0.288 -0.432,-0.648 -0.432,-1.08c0,-0.432 0.144,-0.792 0.432,-1.08c0.288,-0.288 0.66,-0.432 1.116,-0.432c0.48,0 0.864,0.144 1.152,0.432Z" style="fill:#d16c4b;fill-rule:nonzero;"/><path d="M123.228,0.612l0.004,26.892l-1.8,0l-0.256,-3.276c-1.296,2.184 -3.18,3.276 -5.652,3.276c-2.184,0 -3.906,-0.87 -5.166,-2.61c-1.26,-1.74 -1.89,-4.11 -1.89,-7.11c0,-1.944 0.294,-3.66 0.882,-5.148c0.588,-1.488 1.44,-2.652 2.556,-3.492c1.116,-0.84 2.43,-1.26 3.942,-1.26c2.136,0 3.9,0.852 5.292,2.556l0,-10.08l2.088,0.252Zm-4.338,24.3c0.828,-0.576 1.578,-1.452 2.25,-2.628l0,-9.828c-1.344,-1.896 -2.988,-2.844 -4.932,-2.844c-1.704,0 -3.054,0.708 -4.05,2.124c-0.996,1.416 -1.482,3.42 -1.458,6.012c0,2.592 0.456,4.578 1.368,5.958c0.912,1.38 2.172,2.07 3.78,2.07c1.2,0 2.214,-0.288 3.042,-0.864Z" style="fill:#d16c4b;fill-rule:nonzero;"/></g></svg>