<?xml version="1.0" encoding="UTF-8" standalone="no"?><!DOCTYPE svg PUBLIC "-//W3C//DTD SVG 1.1//EN" "http://www.w3.org/Graphics/SVG/1.1/DTD/svg11.dtd"><svg width="100%" height="100%" viewBox="0 0 147 28" version="1.1" xmlns="http://www.w3.org/2000/svg" xmlns:xlink="http://www.w3.org/1999/xlink" xml:space="preserve" style="fill-rule:evenodd;clip-rule:evenodd;stroke-linejoin:round;stroke-miterlimit:1.41421;"><g transform="matrix(3.70218,0,0,3.70218,-855.739,-569.894)"><text x="230.558px" y="161.308px" style="font-family:'FiraSans-Regular', 'Fira Sans', sans-serif;font-size:9.454px;fill:#2d709b;">dev</text><text x="245.978px" y="161.308px" style="font-family:'FiraSans-Regular', 'Fira Sans', sans-serif;font-size:9.454px;fill:#d16c4b;">Gaid</text></g><g><path d="M136.878,7.72c5.52,0 10,4.481 10,10c0,5.519 -4.48,10 -10,10c-5.519,0 -10,-4.481 -10,-10c0,-5.519 4.481,-10 10,-10Zm0,3.154c3.779,0 6.847,3.067 6.847,6.846c0,3.779 -3.068,6.846 -6.847,6.846c-3.778,0 -6.846,-3.067 -6.846,-6.846c0,-3.779 3.068,-6.846 6.846,-6.846Z" style="fill:#d16c4b;"/></g><path d="M140.902,13.697l-5.621,2.426l-2.426,5.62l5.621,-2.426l2.426,-5.62Zm-3.078,3.077c0.522,0.522 0.522,1.37 0,1.892c-0.522,0.522 -1.369,0.522 -1.891,0c-0.523,-0.522 -0.523,-1.37 0,-1.892c0.522,-0.522 1.369,-0.522 1.891,0Z" style="fill:#d16c4b;"/></svg>