<?xml version="1.0" encoding="utf-8"?>
<!-- Generator: Adobe Illustrator 21.0.2, SVG Export Plug-In . SVG Version: 6.00 Build 0)  -->
<svg version="1.1" id="Layer_1" xmlns="http://www.w3.org/2000/svg" xmlns:xlink="http://www.w3.org/1999/xlink" x="0px" y="0px"
	 viewBox="0 0 411 77" style="enable-background:new 0 0 411 77;" xml:space="preserve">
<style type="text/css">
	.st0{fill:#4680FE;stroke:#4680FE;stroke-miterlimit:10;}
	.st1{fill:#FB607F;stroke:#FB607F;stroke-miterlimit:10;}
</style>
<g>
	<path class="st0" d="M63.8,29.6c2.8,6.8,2.8,14.8,0,21.7C60.2,60,52.1,66.9,39.4,66.9h-5.2c-0.5,0-0.9-0.4-0.9-0.8
		c0-0.5,0.4-0.9,0.9-0.9h5.2c12,0,19.6-6.4,22.9-14.7c2.6-6.4,2.6-14,0-20.4c-3.3-8.3-10.9-14.7-22.9-14.7H24.8v50.6
		c0,0.4-0.4,0.8-0.9,0.8c-0.4,0-0.8-0.4-0.8-0.8V14.7c0-0.4,0.4-0.8,0.8-0.8h15.4C52.1,13.9,60.2,20.7,63.8,29.6z M34.2,46.3
		c-0.4,0-0.9-0.4-0.9-0.8V25c0-0.5,0.4-0.9,0.9-0.9h5.1c7.6,0,12.5,4.2,14.5,9.6c1.7,4.2,1.7,9.1,0,13.2c-2.1,5.5-7,9.7-14.5,9.7
		h-5.1c-0.4,0-0.9-0.4-0.9-0.9s0.4-0.9,0.9-0.9h5.1c6.8,0,11.1-3.7,13-8.6c1.4-3.8,1.4-8.3,0-12c-1.9-4.8-6.3-8.6-13-8.6h-4.2v19.8
		C35.1,46,34.7,46.3,34.2,46.3z"/>
	<path class="st0" d="M103.9,66.1c0,0.4-0.4,0.8-0.8,0.8H76.4c-0.5,0-0.9-0.4-0.9-0.8V14.7c0-0.4,0.4-0.8,0.9-0.8h26.6
		c0.4,0,0.8,0.4,0.8,0.8c0,0.5-0.4,0.9-0.8,0.9H77.2v49.8h25.9C103.5,65.3,103.9,65.6,103.9,66.1z M103.9,25c0,0.5-0.4,0.9-0.8,0.9
		H87.5v8.6h10.7c0.5,0,0.9,0.4,0.9,0.9s-0.4,0.9-0.9,0.9H86.7c-0.5,0-0.9-0.4-0.9-0.9V25c0-0.4,0.4-0.8,0.9-0.8h16.3
		C103.5,24.2,103.9,24.5,103.9,25z M99.1,45.6c0,0.4-0.4,0.8-0.9,0.8H87.5V55h15.6c0.4,0,0.8,0.4,0.8,0.9c0,0.4-0.4,0.8-0.8,0.8
		H86.7c-0.5,0-0.9-0.4-0.9-0.8V45.6c0-0.5,0.4-0.9,0.9-0.9h11.5C98.8,44.7,99.1,45,99.1,45.6z"/>
	<path class="st0" d="M151.9,14.7c0.4,0.1,0.6,0.6,0.4,1L131,67.9c-0.3,0.8-1.2,0.7-1.5,0l-21.2-52.1c-0.1-0.4,0.1-0.9,0.4-1
		c0.4-0.1,0.9,0,1.2,0.4l20.5,50.3l20.4-50.3C151,14.7,151.4,14.6,151.9,14.7z M120,14.7c0.4-0.1,0.9,0,1,0.4l9.3,22.6l9.2-22.6
		c0.1-0.4,0.6-0.6,1.1-0.4c0.4,0.1,0.6,0.6,0.4,1l-10,24.6c-0.2,0.6-1.2,0.7-1.5,0l-10-24.6C119.3,15.4,119.5,14.9,120,14.7z"/>
	<path class="st0" d="M195.7,40.4c0-0.4,0.4-0.8,0.9-0.8c0.4,0,0.8,0.4,0.8,0.8v22.5c0.1,0.3-0.1,0.6-0.4,0.8
		c-4.2,2.4-8.9,3.7-13.8,3.7c-12.5,0-20.7-6.7-24.6-15.3c-3.1-6.9-3.2-15.3-0.4-22.4c3.6-8.8,11.8-15.8,24.9-16.2
		c4.2-0.1,8.3,0.6,12.3,1.9c0.4,0.1,0.7,0.6,0.6,1.1c-0.2,0.4-0.6,0.6-1.1,0.5c-3.8-1.2-7.7-1.9-11.7-1.7
		c-12.4,0.4-20,6.8-23.5,15.1c-2.7,6.7-2.6,14.5,0.4,21.1c3.6,8.1,11.4,14.3,23,14.3c4.3,0,8.6-1,12.5-3.2V40.4z M194.8,26.8
		c-0.1,0.4-0.6,0.6-1.1,0.4c-3.3-1.4-6.8-1.9-10.4-1.7c-7.1,0.2-11.4,4-13.4,8.9c-1.6,3.9-1.5,8.6,0.2,12.4
		c2.1,4.8,6.4,8.4,13.1,8.4c0.6,0,1.3,0,2-0.1V40.4c0-0.4,0.4-0.8,0.9-0.8c0.4,0,0.8,0.4,0.8,0.8v15.5c0,0.4-0.3,0.8-0.7,0.8
		c-0.9,0.2-1.9,0.3-3,0.3c-7.4,0-12.4-4.1-14.6-9.4c-1.9-4.2-1.9-9.4-0.3-13.7c2.2-5.4,7.1-9.6,14.9-9.9c3.7-0.1,7.6,0.3,11.1,1.9
		C194.8,26,195,26.5,194.8,26.8z"/>
	<path class="st0" d="M204.7,66.1c-0.4-0.1-0.6-0.7-0.4-1.1l21.1-51.8c0.3-0.8,1.3-0.7,1.6,0l21.1,51.8c0.1,0.4,0,0.9-0.4,1.1
		c-0.4,0.1-0.9,0-1.1-0.5l-20.4-49.9l-20.4,49.9C205.7,66.1,205.2,66.3,204.7,66.1z M216,66.1c-0.5-0.1-0.7-0.7-0.5-1.1l1.9-4.7
		c0.1-0.4,0.4-0.5,0.8-0.5h16c0.4,0,0.7,0.2,0.8,0.5l1.9,4.7c0.1,0.4-0.1,0.9-0.5,1.1c-0.4,0.1-0.9,0-1.1-0.5l-1.7-4.2h-14.9
		l-1.7,4.2C216.8,66.1,216.4,66.3,216,66.1z M221.5,50.3c0-0.4,0.4-0.8,0.9-0.8h6.4l-3.4-8.2c-0.1-0.4,0.1-0.9,0.4-1.1
		c0.5-0.2,0.9,0,1.2,0.5l3.7,9.2c0.1,0.1,0.1,0.2,0.1,0.4c0,0.4-0.4,0.8-0.9,0.8h-7.6C221.9,51.1,221.5,50.7,221.5,50.3z"/>
	<path class="st0" d="M256.2,66.9c-0.5,0-0.9-0.4-0.9-0.8V14.7c0-0.4,0.4-0.8,0.9-0.8c0.4,0,0.8,0.4,0.8,0.8v51.5
		C257,66.6,256.6,66.9,256.2,66.9z M266.5,66.9c-0.5,0-0.9-0.4-0.9-0.8V14.7c0-0.4,0.4-0.8,0.9-0.8c0.4,0,0.8,0.4,0.8,0.8v51.5
		C267.3,66.6,266.9,66.9,266.5,66.9z"/>
	<path class="st0" d="M319.5,29.6c2.8,6.8,2.8,14.8,0,21.7c-3.5,8.8-11.7,15.7-24.4,15.7h-5.2c-0.5,0-0.9-0.4-0.9-0.8
		c0-0.5,0.4-0.9,0.9-0.9h5.2c12,0,19.6-6.4,22.9-14.7c2.6-6.4,2.6-14,0-20.4c-3.3-8.3-10.9-14.7-22.9-14.7h-14.5v50.6
		c0,0.4-0.4,0.8-0.9,0.8c-0.4,0-0.8-0.4-0.8-0.8V14.7c0-0.4,0.4-0.8,0.8-0.8h15.4C307.8,13.9,316,20.7,319.5,29.6z M290,46.3
		c-0.4,0-0.9-0.4-0.9-0.8V25c0-0.5,0.4-0.9,0.9-0.9h5.1c7.6,0,12.5,4.2,14.5,9.6c1.7,4.2,1.7,9.1,0,13.2c-2.1,5.5-7,9.7-14.5,9.7
		H290c-0.4,0-0.9-0.4-0.9-0.9s0.4-0.9,0.9-0.9h5.1c6.8,0,11.1-3.7,13-8.6c1.4-3.8,1.4-8.3,0-12c-1.9-4.8-6.3-8.6-13-8.6h-4.2v19.8
		C290.8,46,290.4,46.3,290,46.3z"/>
	<path class="st0" d="M383.1,33.1c-0.5,0.1-0.9-0.1-1.1-0.6c-3.5-10.8-13.6-18-25-18c-15.3,0-25.9,10.8-25.9,25.8
		c0,15,10.6,25.9,25.9,25.9c11.4,0,21.5-7.2,25-18.1c0.1-0.5,0.6-0.7,1.1-0.6c0.4,0.1,0.7,0.6,0.6,1.1C380,60.2,369,67.9,357,67.9
		c-16.3,0-27.5-11.7-27.5-27.6c0-15.8,11.2-27.5,27.5-27.5c12,0,23,7.8,26.6,19.2C383.8,32.4,383.5,33,383.1,33.1z M342.9,47.6
		c0.4-0.2,1-0.1,1.2,0.3c2.6,4.7,7.5,7.6,12.9,7.6c8.4,0,14.9-6.9,14.9-15.2s-6.6-15.2-14.9-15.2c-5.4,0-10.3,3-12.9,7.6
		c-0.2,0.4-0.8,0.6-1.2,0.4c-0.4-0.3-0.5-0.8-0.3-1.2c3-5.2,8.4-8.4,14.4-8.4c9.3,0,16.6,7.7,16.6,16.8c0,9.2-7.3,16.9-16.6,16.9
		c-6,0-11.4-3.3-14.4-8.5C342.4,48.4,342.5,47.8,342.9,47.6z"/>
	<path class="st1" d="M402.4,57.5c1.8,4.4-1.2,9.2-6,9.2c-5,0-7.8-4.8-6-9.2c0.9-2.2,2.9-3.9,6-3.9S401.4,55.3,402.4,57.5z
		 M396.3,55.3c-2.4,0-4,1.3-4.6,2.9c-1.3,3.5,0.8,6.9,4.6,6.9s5.9-3.5,4.5-6.9C400.3,56.5,398.6,55.3,396.3,55.3z"/>
</g>
</svg>
