<?xml version="1.0" encoding="utf-8"?>
<!-- Generator: Adobe Illustrator 21.1.0, SVG Export Plug-In . SVG Version: 6.00 Build 0)  -->
<svg version="1.1" id="Layer_1" xmlns="http://www.w3.org/2000/svg" xmlns:xlink="http://www.w3.org/1999/xlink" x="0px" y="0px"
	 viewBox="0 0 50 50" style="enable-background:new 0 0 50 50;" xml:space="preserve">
<style type="text/css">
	.st0{fill:#FFFFFF;}
</style>
<g transform="translate(0,-1020.3622)">
	<path class="st0" d="M21.7,1032v35.8h1.7V1032H21.7z"/>
	<path class="st0" d="M27.5,1030.8c-0.5,0-0.8,0.4-0.8,0.8v21.7c0,0.5,0.4,0.8,0.8,0.8c0.5,0,0.8-0.4,0.8-0.8c0,0,0,0,0,0v-21.7
		C28.3,1031.2,28,1030.8,27.5,1030.8C27.5,1030.8,27.5,1030.8,27.5,1030.8z"/>
	<path class="st0" d="M0.8,1027c-0.5,0-0.8,0.4-0.8,0.8v35.8c0,0.4,0.3,0.7,0.7,0.8l22.1,4.2c0.1,0,0.1,0,0.2,0h4.2
		c0.1,0,0.1,0,0.2,0l22.1-4.2c0.4-0.1,0.7-0.4,0.7-0.8v-35.8c0-0.5-0.4-0.8-0.8-0.8c-0.1,0-0.1,0-0.2,0l-22,4.2h-4L1,1027
		C0.9,1027,0.9,1027,0.8,1027L0.8,1027z M1.7,1028.9l21.1,4c0.1,0,0.1,0,0.2,0h4.2c0.1,0,0.1,0,0.2,0l21.1-4v34.1l-21.3,4h-4
		l-21.3-4L1.7,1028.9z"/>
	<path class="st0" d="M5,1023.7c-0.5,0-0.8,0.4-0.8,0.8v3.7c0,0.5,0.4,0.8,0.8,0.8c0.5,0,0.8-0.4,0.8-0.8c0,0,0,0,0,0v-2.5l17.2,7
		c0.4,0.2,0.9,0,1.1-0.5s0-0.9-0.5-1.1l-18.3-7.5C5.2,1023.7,5.1,1023.7,5,1023.7L5,1023.7z"/>
	<path class="st0" d="M10,1022c-0.4,0-0.8,0.4-0.8,0.8v3.3c0,0.5,0.4,0.8,0.8,0.8c0.5,0,0.8-0.4,0.8-0.8c0,0,0,0,0,0v-1.8l13.3,8.4
		c0.4,0.3,0.9,0.2,1.2-0.2c0.3-0.4,0.2-0.9-0.2-1.2c0,0,0,0,0,0l-14.6-9.2C10.3,1022.1,10.1,1022,10,1022L10,1022z"/>
	<path class="st0" d="M45,1023.7c-0.1,0-0.2,0-0.3,0.1l-18.3,7.5c-0.4,0.2-0.6,0.7-0.5,1.1s0.7,0.6,1.1,0.5c0,0,0,0,0,0l17.2-7v2.5
		c0,0.5,0.4,0.8,0.8,0.8c0.5,0,0.8-0.4,0.8-0.8c0,0,0,0,0,0v-3.7C45.8,1024.1,45.5,1023.7,45,1023.7C45,1023.7,45,1023.7,45,1023.7
		L45,1023.7z"/>
	<path class="st0" d="M40,1022c-0.1,0-0.3,0-0.4,0.1l-14.6,9.2c-0.4,0.2-0.5,0.7-0.3,1.1s0.7,0.5,1.1,0.3c0,0,0,0,0,0l13.3-8.4v1.8
		c0,0.5,0.4,0.8,0.8,0.8c0.5,0,0.8-0.4,0.8-0.8c0,0,0,0,0,0v-3.3C40.8,1022.4,40.5,1022,40,1022C40,1022,40,1022,40,1022L40,1022z"
		/>
	<path class="st0" d="M45,1034.9c0,0-0.1,0-0.1,0l-12,2.3c-0.4,0.1-0.7,0.4-0.7,0.8v6.7c0,0.5,0.4,0.8,0.8,0.8c0.1,0,0.1,0,0.2,0
		l12-2.3c0.4-0.1,0.7-0.4,0.7-0.8v-6.7C45.8,1035.3,45.5,1034.9,45,1034.9C45,1034.9,45,1034.9,45,1034.9L45,1034.9z M44.2,1036.8v5
		l-10.3,1.9v-5L44.2,1036.8z"/>
	<path class="st0" d="M45,1044.9c0,0-0.1,0-0.1,0l-6,1.1c-0.5,0.1-0.8,0.5-0.7,1c0.1,0.5,0.5,0.8,1,0.7c0,0,0,0,0,0l6-1.1
		c0.5-0.1,0.8-0.5,0.7-1C45.8,1045.2,45.4,1044.9,45,1044.9L45,1044.9z"/>
	<path class="st0" d="M27.5,1058.3c-0.5,0-0.8,0.4-0.8,0.8v8.3c0,0.5,0.4,0.8,0.8,0.8c0.5,0,0.8-0.4,0.8-0.8c0,0,0,0,0,0v-8.3
		C28.3,1058.6,28,1058.3,27.5,1058.3C27.5,1058.3,27.5,1058.3,27.5,1058.3z"/>
	<path class="st0" d="M28.3,1056.2c0,0.5-0.4,0.8-0.8,0.8c0,0,0,0,0,0c-0.5,0-0.8-0.4-0.8-0.8l0,0c0-0.5,0.4-0.8,0.8-0.8
		S28.3,1055.7,28.3,1056.2z"/>
</g>
</svg>
