<?xml version="1.0" encoding="utf-8"?>
<!-- Generator: Adobe Illustrator 21.0.2, SVG Export Plug-In . SVG Version: 6.00 Build 0)  -->
<svg version="1.1" id="Layer_1" xmlns="http://www.w3.org/2000/svg" xmlns:xlink="http://www.w3.org/1999/xlink" x="0px" y="0px"
	 viewBox="0 0 600 600" style="enable-background:new 0 0 600 600;" xml:space="preserve">
<style type="text/css">
	.st0{fill:#F9FBFF;}
	.st1{fill:#9EA8DB;stroke:#333366;stroke-width:7;stroke-miterlimit:10;}
	.st2{fill:#FFD9CC;stroke:#333366;stroke-width:7;stroke-miterlimit:10;}
	.st3{fill:#FFE2D9;stroke:#333366;stroke-width:7;stroke-miterlimit:10;}
	.st4{fill:none;stroke:#333366;stroke-width:7;stroke-miterlimit:10;}
	.st5{fill:none;stroke:#333366;stroke-width:7;stroke-linecap:round;stroke-miterlimit:10;}
	.st6{fill:#333366;}
	.st7{fill:#333366;stroke:#333366;stroke-width:7;stroke-miterlimit:10;}
	.st8{fill:#FEF1EE;stroke:#333366;stroke-width:7;stroke-miterlimit:10;}
	.st9{display:none;}
</style>
<g id="background">
	<g>
		<g id="Layer_4">
			<circle class="st0" cx="226.6" cy="316" r="181.5"/>
		</g>
		<path class="st0" d="M197.8,272.8h222.5c18.1,0,32.7-14.7,32.7-32.7l0,0c0-18.1-14.7-32.7-32.7-32.7H197.8
			c-18.1,0-32.7,14.7-32.7,32.7l0,0C165,258.2,179.7,272.8,197.8,272.8z"/>
		<path class="st0" d="M66.8,388.3h-32c-17.4,0-31.5-14.1-31.5-31.5l0,0c0-17.4,14.1-31.5,31.5-31.5h32c17.4,0,31.5,14.1,31.5,31.5
			l0,0C98.3,374.2,84.2,388.3,66.8,388.3z"/>
		<path class="st0" d="M211,388.3h242c16.6,0,30-13.4,30-30l0,0c0-16.6-13.4-30-30-30H211c-16.6,0-30,13.4-30,30l0,0
			C181,374.9,194.4,388.3,211,388.3z"/>
		<path class="st0" d="M278.9,480.3H374c14.9,0,27-12.1,27-27l0,0c0-14.9-12.1-27-27-27h-95.1c-14.9,0-27,12.1-27,27l0,0
			C251.9,468.3,264,480.3,278.9,480.3z"/>
		<path class="st0" d="M293.5,169.3h91c11.3,0,20.5-9.2,20.5-20.5l0,0c0-11.3-9.2-20.5-20.5-20.5h-91c-11.3,0-20.5,9.2-20.5,20.5
			l0,0C273,160.2,282.2,169.3,293.5,169.3z"/>
		<path class="st0" d="M543.6,385.3h27c14.4,0,26-11.6,26-26l0,0c0-14.4-11.6-26-26-26h-27c-14.4,0-26,11.6-26,26l0,0
			C517.6,373.7,529.3,385.3,543.6,385.3z"/>
		<g>
			<path class="st0" d="M479,149.8c-10.8,0-19.5-8.7-19.5-19.5s8.7-19.5,19.5-19.5s19.5,8.7,19.5,19.5S489.8,149.8,479,149.8z
				 M479,122.8c-4.1,0-7.5,3.4-7.5,7.5c0,4.1,3.4,7.5,7.5,7.5s7.5-3.4,7.5-7.5S483.1,122.8,479,122.8z"/>
		</g>
		<g>
			<path class="st0" d="M367,64.4c-6.6,0-12-5.4-12-12s5.4-12,12-12s12,5.4,12,12S373.7,64.4,367,64.4z M367,47.7
				c-2.6,0-4.6,2.1-4.6,4.6s2.1,4.6,4.6,4.6s4.6-2.1,4.6-4.6S369.6,47.7,367,47.7z"/>
		</g>
		<g>
			<path class="st0" d="M509,297.3c-7.5,0-13.7-6.1-13.7-13.7s6.1-13.7,13.7-13.7c7.6,0,13.7,6.1,13.7,13.7
				C522.7,291.2,516.5,297.3,509,297.3z M509,278.4c-2.9,0-5.3,2.4-5.3,5.3s2.4,5.3,5.3,5.3s5.3-2.4,5.3-5.3S511.9,278.4,509,278.4z
				"/>
		</g>
	</g>
</g>
<g id="character">
	<g>
		<path class="st1" d="M204.8,400.3c-50.6,0-91.7,22.8-91.7,51v63.3h183.3v-63.3C296.5,423.2,255.5,400.3,204.8,400.3z"/>
		<g>
			<path class="st2" d="M206,437.8c-14.9,0-27-12.1-27-27v-40.5h54v40.5C233,425.7,220.9,437.8,206,437.8z"/>
		</g>
		<g>
			<path class="st3" d="M205.5,380.3c-55.2,0-74-39.8-78.5-52c-0.7-1.8-1-3.8-1-5.8v-81.2c0-0.3,0-0.7,0-1l1.1-18.3
				c0.4-7.5,5.6-13.7,12.9-15.6l63.9-16.2c1.4-0.3,2.8-0.5,4.2-0.5c3.2,0,6.3,0.9,9,2.6l56.8,35.3c5.1,3.1,8.1,8.6,8.1,14.5v83.7
				c0,1.8-0.3,3.6-0.8,5.3C277.4,342.8,260.7,380.3,205.5,380.3z"/>
		</g>
		<g>
			<line class="st4" x1="146.8" y1="468.3" x2="146.8" y2="514.7"/>
			<line class="st4" x1="262.8" y1="468.3" x2="262.8" y2="514.7"/>
		</g>
		<path class="st5" d="M208.4,315.1c-5,2.3-10.8,0.1-13.1-4.8c-2.3-5-0.1-10.8,4.8-13.1"/>
		<circle class="st6" cx="169.5" cy="290.4" r="6.8"/>
		<circle class="st6" cx="238.2" cy="290.4" r="6.8"/>
		<path class="st5" d="M183.9,261.6c-3.7-2.2-9.3-2.8-15-1.3s-10.3,4.7-12.5,8.3"/>
		<path class="st5" d="M224.4,261.6c3.7-2.2,9.3-2.8,15-1.3s10.3,4.7,12.5,8.3"/>
		<path class="st5" d="M229.5,336.8c0,4-11.4,12.5-25.4,12.5s-25.4-8.5-25.4-12.5"/>
		<line class="st4" x1="196" y1="534.3" x2="347" y2="534.3"/>
		<line class="st4" x1="211.7" y1="559.3" x2="133" y2="559.3"/>
		<line class="st4" x1="146.8" y1="534.3" x2="91.8" y2="534.3"/>
		<g>
			<path class="st7" d="M279.8,128.3c0,0,14.2-11,22.2-28.1c-20.3,5.8-57.7,13.9-89.2,6.1C155.5,92.1,108,149,98,183
				c-7.7,26.2,9,82.7,9,82.7s4.9,6.3,11.3-1.8c11.8-15-3.8-35.8,16.3-37.5c4.3-0.4,29.5,17.3,54.8,4c62.9-33.2,83.3,10.9,96.1,24.8
				c2.4,2.6-4.9,8.6,6.3,14.4c17.3,9,2.8-45.6,15.6-69.9c17.1-32.6,21-56.8,19.9-73.6C306.6,132.4,279.8,128.3,279.8,128.3z"/>
		</g>
		<g>
			<g>
				<path class="st3" d="M122.5,293.9c-11.6,0-21.1-9.5-21.1-21.1s9.5-21.1,21.1-21.1h3.5v42.2H122.5L122.5,293.9z"/>
			</g>
			<g>
				<path class="st3" d="M282,293.9v-42.2h3.5c11.6,0,21.1,9.5,21.1,21.1s-9.5,21.1-21.1,21.1H282L282,293.9z"/>
			</g>
		</g>
		<path class="st8" d="M124.8,262.8c-5.8,0-10.5,4.5-10.5,10s4.7,10,10.5,10"/>
		<path class="st8" d="M283.8,282.8c5.8,0,10.5-4.5,10.5-10s-4.7-10-10.5-10"/>
	</g>
</g>
<g id="Layer_3" class="st9">
</g>
</svg>
