<?xml version="1.0" encoding="utf-8"?>
<!-- Generator: Adobe Illustrator 21.0.2, SVG Export Plug-In . SVG Version: 6.00 Build 0)  -->
<svg version="1.1" xmlns="http://www.w3.org/2000/svg" xmlns:xlink="http://www.w3.org/1999/xlink" x="0px" y="0px"
	 viewBox="0 0 600 600" style="enable-background:new 0 0 600 600;" xml:space="preserve">
<style type="text/css">
	.st0{fill:#F9FBFF;}
	.st1{fill:#868AA5;}
	.st2{fill:#D3E2FF;stroke:#686D8E;stroke-width:7;stroke-miterlimit:10;}
	.st3{fill:#FFD9CC;stroke:#686D8E;stroke-width:7;stroke-miterlimit:10;}
	.st4{fill:#FFE2D9;stroke:#686D8E;stroke-width:7;stroke-miterlimit:10;}
	.st5{fill:none;stroke:#686D8E;stroke-width:7;stroke-miterlimit:10;}
	.st6{fill:none;stroke:#686D8E;stroke-width:7;stroke-linecap:round;stroke-miterlimit:10;}
	.st7{fill:#676D8D;}
	.st8{fill:#676D8D;stroke:#686D8E;stroke-width:7;stroke-miterlimit:10;}
	.st9{fill:#FEF1EE;stroke:#686D8E;stroke-width:7;stroke-miterlimit:10;}
	.st10{fill:#FFFFFF;stroke:#686D8E;stroke-width:7;stroke-miterlimit:10;}
	.st11{fill:none;stroke:#686D8E;stroke-width:7;stroke-linecap:round;stroke-linejoin:round;stroke-miterlimit:10;}
	.st12{fill:none;stroke:#686D8E;stroke-width:7;stroke-miterlimit:10;stroke-dasharray:28.1371,14.0685;}
	.st13{fill:none;stroke:#686D8E;stroke-width:7;stroke-miterlimit:10;stroke-dasharray:24,12;}
	.st14{fill:#B2E1DD;stroke:#686D8E;stroke-width:7;stroke-miterlimit:10;}
	.st15{fill:#DCE8FF;stroke:#686D8E;stroke-width:7;stroke-miterlimit:10;}
	.st16{fill:#7ECDC7;stroke:#686D8E;stroke-width:7;stroke-miterlimit:10;}
	.st17{fill:none;stroke:#C3C5D2;stroke-width:7;stroke-linecap:round;stroke-miterlimit:10;}
	.st18{fill:#BDCCD4;stroke:#686D8E;stroke-width:7;stroke-miterlimit:10;}
	.st19{display:none;}
</style>
<g id="background">
	<g>
		<g id="Layer_4_1_">
			<circle class="st0" cx="265.4" cy="314.1" r="165.3"/>
		</g>
		<path class="st0" d="M223.6,281.3h222.5c18.1,0,32.7-14.7,32.7-32.7l0,0c0-18.1-14.7-32.7-32.7-32.7H223.6
			c-18.1,0-32.7,14.7-32.7,32.7l0,0C190.8,266.7,205.5,281.3,223.6,281.3z"/>
		<path class="st0" d="M126.7,396.8h-32c-17.4,0-31.5-14.1-31.5-31.5l0,0c0-17.4,14.1-31.5,31.5-31.5h32c17.4,0,31.5,14.1,31.5,31.5
			l0,0C158.2,382.7,144.1,396.8,126.7,396.8z"/>
		<path class="st0" d="M236.8,396.8h242c16.6,0,30-13.4,30-30l0,0c0-16.6-13.4-30-30-30h-242c-16.6,0-30,13.4-30,30l0,0
			C206.8,383.4,220.2,396.8,236.8,396.8z"/>
		<path class="st0" d="M334.8,492.8h95.1c14.9,0,27-12.1,27-27l0,0c0-14.9-12.1-27-27-27h-95.1c-14.9,0-27,12.1-27,27l0,0
			C307.8,480.8,319.9,492.8,334.8,492.8z"/>
		<path class="st0" d="M38.3,307.3h91c11.3,0,20.5-9.2,20.5-20.5l0,0c0-11.3-9.2-20.5-20.5-20.5h-91c-11.3,0-20.5,9.2-20.5,20.5l0,0
			C17.8,298.2,27,307.3,38.3,307.3z"/>
		<path class="st0" d="M535,468.8h27c14.4,0,26-11.6,26-26l0,0c0-14.4-11.6-26-26-26h-27c-14.4,0-26,11.6-26,26l0,0
			C509,457.2,520.7,468.8,535,468.8z"/>
		<g>
			<path class="st0" d="M504.8,158.3c-10.8,0-19.5-8.7-19.5-19.5s8.7-19.5,19.5-19.5c10.8,0,19.5,8.7,19.5,19.5
				S515.6,158.3,504.8,158.3z M504.8,131.3c-4.1,0-7.5,3.4-7.5,7.5c0,4.1,3.4,7.5,7.5,7.5s7.5-3.4,7.5-7.5
				C512.3,134.7,508.9,131.3,504.8,131.3z"/>
		</g>
		<g>
			<path class="st0" d="M319.8,128.3c-6.6,0-12-5.4-12-12c0-6.6,5.4-12,12-12s12,5.4,12,12C331.8,122.9,326.5,128.3,319.8,128.3z
				 M319.8,111.6c-2.6,0-4.6,2.1-4.6,4.6s2.1,4.6,4.6,4.6s4.6-2.1,4.6-4.6S322.4,111.6,319.8,111.6z"/>
		</g>
		<g>
			<path class="st0" d="M534.8,305.8c-7.5,0-13.7-6.1-13.7-13.7c0-7.6,6.1-13.7,13.7-13.7s13.7,6.1,13.7,13.7
				C548.5,299.7,542.3,305.8,534.8,305.8z M534.8,286.9c-2.9,0-5.3,2.4-5.3,5.3c0,2.9,2.4,5.3,5.3,5.3s5.3-2.4,5.3-5.3
				C540.1,289.3,537.7,286.9,534.8,286.9z"/>
		</g>
	</g>
</g>
<g id="character">
	<g>
		<path class="st10" d="M355.2,441.1H182.7c-26.5,0-48-21.5-48-48v-141c0-26.5,21.5-48,48-48h172.5c26.5,0,48,21.5,48,48v141
			C403.2,419.6,381.7,441.1,355.2,441.1z"/>
		<path class="st2" d="M403.2,267.6H134.7v-15.5c0-26.5,21.5-48,48-48H353c27.8,0,50.2,22.5,50.2,50.2V267.6z"/>
	</g>
	<g>
		<path class="st10" d="M203,228.5L203,228.5c-4.7,0-8.5-3.8-8.5-8.5v-25c0-4.7,3.8-8.5,8.5-8.5h0c4.7,0,8.5,3.8,8.5,8.5v25
			C211.5,224.7,207.7,228.5,203,228.5z"/>
		<path class="st10" d="M335,228.5L335,228.5c-4.7,0-8.5-3.8-8.5-8.5v-25c0-4.7,3.8-8.5,8.5-8.5l0,0c4.7,0,8.5,3.8,8.5,8.5v25
			C343.5,224.7,339.7,228.5,335,228.5z"/>
	</g>
	<g>
		<line class="st6" x1="179.5" y1="289.5" x2="179.5" y2="410.6"/>
		<line class="st6" x1="224.2" y1="289.5" x2="224.2" y2="410.6"/>
		<line class="st6" x1="269" y1="289.5" x2="269" y2="410.6"/>
		<line class="st6" x1="313.7" y1="289.5" x2="313.7" y2="410.6"/>
		<line class="st6" x1="358.5" y1="289.5" x2="358.5" y2="410.6"/>
	</g>
	<g>
		<line class="st5" x1="180" y1="328.3" x2="359" y2="328.3"/>
		<line class="st5" x1="179" y1="372" x2="359" y2="373.8"/>
	</g>
	<circle class="st3" cx="377.7" cy="220.2" r="74.9"/>
	<path class="st10" d="M377.7,281.8c-34,0-61.7-27.7-61.7-61.7s27.7-61.7,61.7-61.7s61.7,27.7,61.7,61.7S411.7,281.8,377.7,281.8z"
		/>
	<polyline class="st11" points="377.7,175.1 377.7,220.2 413.5,220.2 	"/>
	<g>
		<g>
			<path class="st5" d="M104.7,252.1c0-4.1,0.3-8.1,0.9-12"/>
			<path class="st12" d="M109.1,226.5c4.7-13.4,12.9-25.2,23.6-34.1c8.9-7.5,19.6-13.1,31.3-16"/>
			<path class="st5" d="M170.8,175c3.9-0.6,7.9-0.9,12-0.9"/>
		</g>
	</g>
	<path class="st5" d="M214.7,471.1h-32c-43,0-78-35-78-78"/>
	<path class="st13" d="M433.2,393.1c0,43-35,78-78,78"/>
	<line class="st5" x1="163.7" y1="501.1" x2="279.7" y2="501.1"/>
	<line class="st5" x1="253.7" y1="527.8" x2="369.7" y2="527.8"/>
	<line class="st5" x1="175.7" y1="148.9" x2="291.7" y2="148.9"/>
	<line class="st5" x1="258.7" y1="471.1" x2="313.7" y2="471.1"/>
</g>
<g id="Layer_3" class="st19">
</g>
</svg>
