<?xml version="1.0" encoding="utf-8"?>
<!-- Generator: Adobe Illustrator 21.0.2, SVG Export Plug-In . SVG Version: 6.00 Build 0)  -->
<svg version="1.1" id="Layer_1" xmlns="http://www.w3.org/2000/svg" xmlns:xlink="http://www.w3.org/1999/xlink" x="0px" y="0px"
	 viewBox="0 0 600 600" style="enable-background:new 0 0 600 600;" xml:space="preserve">
<style type="text/css">
	.st0{fill:#F9FBFF;}
	.st1{display:none;}
	.st2{display:inline;fill:#868AA5;}
	.st3{display:inline;fill:#B2E1DD;stroke:#686D8E;stroke-width:7;stroke-miterlimit:10;}
	.st4{display:inline;fill:#FFFFFF;stroke:#686D8E;stroke-width:7;stroke-miterlimit:10;}
	.st5{display:inline;fill:#DCE8FF;stroke:#686D8E;stroke-width:7;stroke-miterlimit:10;}
	.st6{display:inline;fill:#7ECDC7;stroke:#686D8E;stroke-width:7;stroke-miterlimit:10;}
	.st7{display:inline;fill:none;stroke:#C3C5D2;stroke-width:7;stroke-linecap:round;stroke-miterlimit:10;}
	.st8{display:inline;}
	.st9{fill:none;stroke:#686D8E;stroke-width:7;stroke-linecap:round;stroke-miterlimit:10;}
	.st10{fill:#BDCCD4;stroke:#686D8E;stroke-width:7;stroke-miterlimit:10;}
	.st11{fill:#D3E2FF;stroke:#686D8E;stroke-width:7;stroke-miterlimit:10;}
	.st12{fill:#FFFFFF;}
	.st13{fill:#9EA8DB;}
	.st14{fill:#1A237E;}
	.st15{fill:#3CC788;}
	.st16{fill:#3F51B5;}
	.st17{fill:#505475;}
	.st18{fill:#00BC67;}
	.st19{fill:none;stroke:#1A237E;stroke-width:7;stroke-linecap:round;stroke-miterlimit:10;}
	.st20{fill:none;stroke:#1A237E;stroke-width:7;stroke-miterlimit:10;}
	.st21{fill:#D3E2FF;}
	.st22{fill:none;stroke:#1A237E;stroke-width:7;stroke-linecap:round;stroke-miterlimit:10;stroke-dasharray:24;}
	.st23{fill:none;stroke:#1A237E;stroke-width:7;stroke-linecap:round;stroke-miterlimit:10;stroke-dasharray:18;}
</style>
<g id="background">
	<path class="st0" d="M223.6,281.3h222.5c18.1,0,32.7-14.7,32.7-32.7l0,0c0-18.1-14.7-32.7-32.7-32.7H223.6
		c-18.1,0-32.7,14.7-32.7,32.7l0,0C190.8,266.7,205.5,281.3,223.6,281.3z"/>
	<path class="st0" d="M126.7,396.8h-32c-17.4,0-31.5-14.1-31.5-31.5l0,0c0-17.4,14.1-31.5,31.5-31.5h32c17.4,0,31.5,14.1,31.5,31.5
		l0,0C158.2,382.7,144.1,396.8,126.7,396.8z"/>
	<path class="st0" d="M236.8,396.8h242c16.6,0,30-13.4,30-30l0,0c0-16.6-13.4-30-30-30h-242c-16.6,0-30,13.4-30,30l0,0
		C206.8,383.4,220.2,396.8,236.8,396.8z"/>
	<path class="st0" d="M334.8,492.8h95.1c14.9,0,27-12.1,27-27l0,0c0-14.9-12.1-27-27-27h-95.1c-14.9,0-27,12.1-27,27l0,0
		C307.8,480.8,319.9,492.8,334.8,492.8z"/>
	<path class="st0" d="M38.3,307.3h91c11.3,0,20.5-9.2,20.5-20.5l0,0c0-11.3-9.2-20.5-20.5-20.5h-91c-11.3,0-20.5,9.2-20.5,20.5l0,0
		C17.8,298.2,27,307.3,38.3,307.3z"/>
	<path class="st0" d="M535,468.8h27c14.4,0,26-11.6,26-26l0,0c0-14.4-11.6-26-26-26h-27c-14.4,0-26,11.6-26,26l0,0
		C509,457.2,520.7,468.8,535,468.8z"/>
	<path class="st0" d="M109.8,167.1h27c14.4,0,26-11.6,26-26l0,0c0-14.4-11.6-26-26-26h-27c-14.4,0-26,11.6-26,26l0,0
		C83.8,155.5,95.5,167.1,109.8,167.1z"/>
	<g>
		<path class="st0" d="M510.8,115.1c-10.8,0-19.5-8.7-19.5-19.5s8.7-19.5,19.5-19.5s19.5,8.7,19.5,19.5S521.6,115.1,510.8,115.1z
			 M510.8,88.1c-4.1,0-7.5,3.4-7.5,7.5s3.4,7.5,7.5,7.5c4.1,0,7.5-3.4,7.5-7.5S514.9,88.1,510.8,88.1z"/>
	</g>
	<g>
		<path class="st0" d="M114.2,235.4c-10.8,0-19.5-8.7-19.5-19.5s8.7-19.5,19.5-19.5s19.5,8.7,19.5,19.5S125,235.4,114.2,235.4z
			 M114.2,208.4c-4.1,0-7.5,3.4-7.5,7.5s3.4,7.5,7.5,7.5s7.5-3.4,7.5-7.5C121.7,211.8,118.3,208.4,114.2,208.4z"/>
	</g>
	<g>
		<path class="st0" d="M319.8,128.3c-6.6,0-12-5.4-12-12s5.4-12,12-12s12,5.4,12,12S326.5,128.3,319.8,128.3z M319.8,111.6
			c-2.6,0-4.6,2.1-4.6,4.6s2.1,4.6,4.6,4.6s4.6-2.1,4.6-4.6S322.4,111.6,319.8,111.6z"/>
	</g>
	<g>
		<path class="st0" d="M534.8,305.8c-7.5,0-13.7-6.1-13.7-13.7s6.1-13.7,13.7-13.7s13.7,6.1,13.7,13.7
			C548.5,299.7,542.3,305.8,534.8,305.8z M534.8,286.9c-2.9,0-5.3,2.4-5.3,5.3s2.4,5.3,5.3,5.3s5.3-2.4,5.3-5.3
			S537.7,286.9,534.8,286.9z"/>
	</g>
</g>
<g id="character" class="st1">
	<circle class="st2" cx="300" cy="311.8" r="160"/>
	<circle class="st3" cx="300" cy="300" r="160"/>
	<path class="st4" d="M300,430c-71.7,0-130-58.3-130-130s58.3-130,130-130s130,58.3,130,130S371.7,430,300,430z"/>
	<path class="st5" d="M300,400c-55.1,0-100-44.9-100-100s44.9-100,100-100s100,44.9,100,100S355.1,400,300,400z"/>
	<path class="st4" d="M300,370c-38.6,0-70-31.4-70-70s31.4-70,70-70s70,31.4,70,70S338.6,370,300,370z"/>
	<path class="st6" d="M300,340c-22.1,0-40-17.9-40-40s17.9-40,40-40s40,17.9,40,40S322.1,340,300,340z"/>
	<line class="st7" x1="300" y1="303.4" x2="460" y2="303.4"/>
	<g class="st8">
		<polyline class="st9" points="300.3,304.7 435.4,169.6 470,135 		"/>
		<polygon class="st10" points="427.4,145.9 471.4,101.8 471.4,134.1 425.2,180.3 		"/>
		<polygon class="st11" points="459.6,178.2 503.7,134.1 471.4,134.1 425.2,180.3 		"/>
	</g>
</g>
<g id="Layer_4_2_">
	<g>
		<path class="st12" d="M469,310.4c0,90.1-73,163.1-163.1,163.1s-163.1-73-163.1-163.1s73-163.1,163.1-163.1
			C396,147.3,469,220.4,469,310.4"/>
		<path class="st13" d="M460,300c0,88.4-71.6,160-160,160s-160-71.6-160-160s71.6-160,160-160S460,211.6,460,300"/>
		<path class="st14" d="M460,300h-3.5c0,43.2-17.5,82.3-45.8,110.7c-28.3,28.3-67.4,45.8-110.7,45.8c-43.2,0-82.3-17.5-110.7-45.8
			c-28.3-28.3-45.8-67.4-45.8-110.7c0-43.2,17.5-82.3,45.8-110.7c28.3-28.3,67.4-45.8,110.7-45.8c43.2,0,82.3,17.5,110.7,45.8
			c28.3,28.3,45.8,67.4,45.8,110.7H460h3.5c0-45.1-18.3-86-47.9-115.6s-70.5-47.9-115.6-47.9s-86,18.3-115.6,47.9
			s-47.9,70.5-47.9,115.6s18.3,86,47.9,115.6s70.5,47.9,115.6,47.9s86-18.3,115.6-47.9s47.9-70.5,47.9-115.6H460"/>
		<path class="st12" d="M300,430c-71.7,0-130-58.3-130-130s58.3-130,130-130s130,58.3,130,130S371.7,430,300,430"/>
		<path class="st14" d="M300,430v-3.5c-34.9,0-66.5-14.2-89.4-37.1s-37.1-54.5-37.1-89.4s14.2-66.5,37.1-89.4s54.5-37.1,89.4-37.1
			s66.5,14.2,89.4,37.1s37.1,54.5,37.1,89.4s-14.2,66.5-37.1,89.4s-54.5,37.1-89.4,37.1V430v3.5c36.8,0,70.2-15,94.4-39.1
			c24.2-24.2,39.1-57.6,39.1-94.4s-15-70.2-39.1-94.4c-24.2-24.2-57.6-39.1-94.4-39.1s-70.2,15-94.4,39.1
			c-24.2,24.2-39.1,57.6-39.1,94.4s15,70.2,39.1,94.4c24.2,24.2,57.6,39.1,94.4,39.1V430"/>
		<path class="st13" d="M300,400c-55.1,0-100-44.9-100-100s44.9-100,100-100s100,44.9,100,100S355.1,400,300,400"/>
		<path class="st14" d="M300,400v-3.5c-26.6,0-50.7-10.8-68.2-28.3s-28.3-41.6-28.3-68.2s10.8-50.7,28.3-68.2s41.6-28.3,68.2-28.3
			s50.7,10.8,68.2,28.3s28.3,41.6,28.3,68.2s-10.8,50.7-28.3,68.2s-41.6,28.3-68.2,28.3V400v3.5c28.5,0,54.4-11.6,73.2-30.3
			c18.7-18.7,30.3-44.6,30.3-73.2c0-28.5-11.6-54.4-30.3-73.2c-18.7-18.7-44.6-30.3-73.2-30.3c-28.5,0-54.4,11.6-73.2,30.3
			c-18.7,18.7-30.3,44.6-30.3,73.2c0,28.5,11.6,54.4,30.3,73.2c18.7,18.7,44.6,30.3,73.2,30.3V400"/>
		<path class="st12" d="M300,370c-38.6,0-70-31.4-70-70s31.4-70,70-70s70,31.4,70,70S338.6,370,300,370"/>
		<path class="st14" d="M300,370v-3.5c-18.3,0-34.9-7.5-47-19.5c-12-12.1-19.5-28.7-19.5-47s7.5-34.9,19.5-47
			c12.1-12,28.7-19.5,47-19.5s34.9,7.5,47,19.5c12,12.1,19.5,28.7,19.5,47s-7.5,34.9-19.5,47c-12.1,12-28.7,19.5-47,19.5V370v3.5
			c20.3,0,38.7-8.2,51.9-21.6c13.3-13.3,21.6-31.7,21.6-51.9c0-20.3-8.2-38.7-21.6-51.9c-13.3-13.3-31.7-21.6-51.9-21.6
			c-20.3,0-38.7,8.2-51.9,21.6c-13.3,13.3-21.6,31.7-21.6,51.9c0,20.3,8.2,38.7,21.6,51.9c13.3,13.3,31.7,21.6,51.9,21.6V370"/>
		<path class="st15" d="M300,340c-22.1,0-40-17.9-40-40s17.9-40,40-40s40,17.9,40,40S322.1,340,300,340"/>
		<path class="st14" d="M300,340v-3.5c-10.1,0-19.2-4.1-25.8-10.7c-6.6-6.6-10.7-15.7-10.7-25.8c0-10.1,4.1-19.2,10.7-25.8
			c6.6-6.6,15.7-10.7,25.8-10.7c10.1,0,19.2,4.1,25.8,10.7c6.6,6.6,10.7,15.7,10.7,25.8c0,10.1-4.1,19.2-10.7,25.8
			c-6.6,6.6-15.7,10.7-25.8,10.7V340v3.5c12,0,22.9-4.9,30.7-12.8c7.9-7.9,12.8-18.8,12.8-30.7c0-12-4.9-22.9-12.8-30.7
			c-7.9-7.9-18.8-12.8-30.7-12.8c-12,0-22.9,4.9-30.7,12.8c-7.9,7.9-12.8,18.8-12.8,30.7c0,12,4.9,22.9,12.8,30.7
			c7.9,7.9,18.8,12.8,30.7,12.8V340"/>
		<path class="st13" d="M463.5,303c0,0.3,0,0.7,0,1c0-0.2,0-0.4,0-0.6C463.5,303.3,463.5,303.1,463.5,303"/>
		<path class="st16" d="M456.5,299.9h-23c0,0,0,0,0,0.1c0,2.3-0.1,4.6-0.2,6.9h23C456.4,304.6,456.5,302.3,456.5,299.9l3.5,0.1l0,0
			L456.5,299.9C456.5,300,456.5,300,456.5,299.9"/>
		<path class="st17" d="M460.7,300H460h-3.5c0,2.3-0.1,4.6-0.2,6.9h3.7c1.7,0,3.2-1.3,3.5-2.9c0-0.3,0-0.7,0-1
			C463.3,301.5,462.1,300.3,460.7,300 M460,299.9h-3.5c0,0,0,0,0,0.1L460,299.9l0.7,0.1C460.5,300,460.2,299.9,460,299.9"/>
		<path class="st13" d="M426.5,299.9h-23c0,0,0,0,0,0.1c0,2.3-0.1,4.6-0.2,6.9h23C426.4,304.6,426.5,302.3,426.5,299.9
			C426.5,300,426.5,300,426.5,299.9"/>
		<path class="st17" d="M433.5,299.9h-7c0,0,0,0,0,0.1c0,2.3-0.1,4.6-0.2,6.9h7C433.4,304.6,433.5,302.3,433.5,299.9
			C433.5,300,433.5,300,433.5,299.9"/>
		<path class="st16" d="M396.5,299.9h-23c0,0,0,0,0,0.1c0,2.3-0.1,4.7-0.3,6.9h23.1C396.4,304.6,396.5,302.3,396.5,299.9
			C396.5,300,396.5,300,396.5,299.9"/>
		<path class="st17" d="M403.5,299.9h-7c0,0,0,0,0,0.1c0,2.3-0.1,4.6-0.2,6.9h7C403.4,304.6,403.5,302.3,403.5,299.9
			C403.5,300,403.5,300,403.5,299.9"/>
		<path class="st13" d="M366.5,299.9h-23c0,0,0,0,0,0.1c0,2.4-0.2,4.7-0.6,6.9h23.2C366.4,304.7,366.5,302.3,366.5,299.9
			C366.5,300,366.5,300,366.5,299.9"/>
		<path class="st17" d="M373.5,299.9h-7c0,0,0,0,0,0.1c0,2.3-0.1,4.7-0.4,6.9h7C373.4,304.7,373.5,302.3,373.5,299.9
			C373.5,300,373.5,300,373.5,299.9"/>
		<path class="st18" d="M336.5,299.9H300c-1.9,0-3.5,1.6-3.5,3.5s1.6,3.5,3.5,3.5h35.8C336.3,304.7,336.5,302.4,336.5,299.9
			C336.5,300,336.5,300,336.5,299.9"/>
		<path class="st17" d="M343.5,299.9h-7c0,0,0,0,0,0.1c0,2.4-0.2,4.7-0.7,6.9h7.1C343.3,304.7,343.5,302.4,343.5,299.9
			C343.5,300,343.5,300,343.5,299.9"/>
		<polyline class="st19" points="300.3,304.7 435.4,169.6 470,135 		"/>
		<polygon class="st12" points="427.4,145.9 471.4,101.8 471.4,134.1 425.2,180.3 		"/>
		<polygon class="st20" points="427.4,145.9 471.4,101.8 471.4,134.1 425.2,180.3 		"/>
		<polygon class="st21" points="459.6,178.2 503.7,134.1 471.4,134.1 425.2,180.3 		"/>
		<polygon class="st20" points="459.6,178.2 503.7,134.1 471.4,134.1 425.2,180.3 		"/>
	</g>
</g>
<g id="Layer_3" class="st1">
</g>
<path class="st22" d="M197.4,141.4c29.5-18.4,64.3-29,101.6-29c37.4,0,72.3,10.7,101.9,29.2"/>
<path class="st22" d="M199.6,469.4c-27.1-16.4-49.8-39.2-66-66.4c-17.1-28.8-27-62.4-27-98.3"/>
<path class="st19" d="M481.6,365.3c-12.6,38-36.8,70.7-68.3,94.1"/>
<path class="st19" d="M468.7,214.2c14.4,27,22.6,57.8,22.6,90.5"/>
<path class="st19" d="M345,92.9c26.8,5.8,51.8,16.6,73.8,31.3"/>
<path class="st19" d="M158.6,140c18.3-15.7,39.4-28.5,62.3-37.4"/>
<path class="st19" d="M120.3,425.1C96.8,390.6,83.1,348.9,83.1,304"/>
<path class="st19" d="M360.7,511.1c-19.5,5.8-40.2,8.9-61.6,8.9c-16.1,0-31.8-1.8-46.9-5.1"/>
<path class="st23" d="M510.8,347.3c-6.9,34.1-21.9,65.3-42.9,91.5"/>
<path class="st19" d="M480.8,187.1c13.5,21,23.5,44.4,29.1,69.6"/>
</svg>
